<svg width="68" height="49" viewBox="0 0 68 49" fill="none" xmlns="http://www.w3.org/2000/svg">
<path d="M30.6943 34.1859C30.6882 38.3434 29.3731 41.7308 26.7679 44.3892C24.1631 46.9222 20.8496 48.1953 16.7862 48.1893C12.6378 48.1831 8.89164 46.4875 5.53363 43.0448C2.21535 39.5179 0.521219 34.315 0.531504 27.3509C0.543259 19.3922 2.61832 12.978 6.71575 8.06324C10.9153 3.04797 16.8538 0.524786 24.6037 0.536233C27.1902 0.540053 29.2319 0.702218 30.7433 1.0132L30.7319 8.71615C29.0712 8.50898 27.0228 8.40506 24.5921 8.40147C20.2852 8.39511 16.7638 9.88493 14.075 12.8827C11.5217 15.49 10.0677 18.9329 9.68469 23.1704L9.5346 24.8309L10.5737 23.5271C12.0471 21.6783 14.4573 20.7038 17.9335 20.7089C21.4879 20.7142 24.4929 21.9847 26.9776 24.533L26.9774 24.5331L26.9862 24.5417C29.4535 26.9517 30.7003 30.1489 30.6943 34.1859ZM67.4009 34.2401C67.3948 38.3976 66.0796 41.785 63.4745 44.4433C60.8697 46.9764 57.5562 48.2495 53.4927 48.2435C49.3444 48.2373 45.5981 46.5417 42.2402 43.099C38.9219 39.5721 37.2277 34.3692 37.238 27.4051C37.2498 19.4466 39.3248 13.0326 43.4219 8.11784C47.6216 3.1023 53.5601 0.578999 61.3102 0.590446C63.8967 0.594266 65.9385 0.756432 67.4499 1.06742L67.4386 8.77036C65.7778 8.56319 63.7293 8.45927 61.2986 8.45568C56.9918 8.44932 53.4703 9.93914 50.7815 12.9369C48.2282 15.5442 46.7742 18.9872 46.3912 23.2246L46.2411 24.885L47.2802 23.5813C48.7537 21.7325 51.1639 20.758 54.6401 20.7631C58.1944 20.7684 61.1995 22.0389 63.6842 24.5873L63.6841 24.5874L63.6928 24.5959C66.1601 27.0059 67.4069 30.2031 67.4009 34.2401Z" stroke="white"/>
</svg>
