<svg width="40" height="40" viewBox="0 0 40 40" fill="none" xmlns="http://www.w3.org/2000/svg">
<g clip-path="url(#clip0_116_940)">
<path d="M21.3281 0.312633C21.8183 0.633356 22.2823 0.987214 22.7478 1.3423C22.8025 1.38384 22.8573 1.42538 22.9136 1.46818C23.0189 1.54829 23.1237 1.62893 23.228 1.71019C24.289 2.52168 25.3682 2.52217 26.6553 2.50013C28.6804 2.46569 28.6804 2.46569 29.5191 3.16755C30.1016 3.74629 30.2891 4.59541 30.5277 5.3578C30.5512 5.43281 30.5747 5.50783 30.5989 5.58512C30.6443 5.73127 30.6889 5.87767 30.7326 6.02434C31.0805 7.16201 31.5705 7.85048 32.5537 8.51087C32.6935 8.60697 32.8333 8.7031 32.973 8.79927C33.1018 8.8871 33.2306 8.97489 33.3594 9.06263C34.1124 9.57669 34.8236 10.0812 35.0363 11.0197C35.1476 11.7236 34.9447 12.3848 34.7186 13.0458C34.6997 13.1012 34.6808 13.1567 34.6613 13.2138C34.5824 13.4437 34.5029 13.6733 34.4211 13.9022C34.0726 14.8824 33.8595 15.8273 34.2236 16.8458C34.2406 16.8957 34.2576 16.9456 34.2751 16.997C34.3328 17.1653 34.3928 17.3327 34.4531 17.5001C35.261 19.7783 35.261 19.7783 34.9219 20.7033C34.5038 21.5443 33.808 22.0125 33.0493 22.5215C32.7084 22.7503 32.3786 22.992 32.0496 23.2377C31.875 23.3595 31.875 23.3595 31.7053 23.4349C31.5219 23.5388 31.4966 23.6401 31.4063 23.8283C31.3443 23.9222 31.2816 24.0157 31.2183 24.1087C30.9855 24.478 30.865 24.862 30.7422 25.2785C30.6957 25.4306 30.6491 25.5826 30.6024 25.7347C30.5799 25.8088 30.5575 25.8829 30.5343 25.9593C30.4427 26.2566 30.3442 26.5513 30.2442 26.8458C30.1879 27.0116 30.1324 27.1775 30.0781 27.3439C30.053 27.4176 30.053 27.4176 30.0274 27.4928C29.9928 27.6996 30.0347 27.8066 30.1123 28.0006C30.1391 28.0689 30.1659 28.1371 30.1935 28.2075C30.2236 28.2816 30.2537 28.3558 30.2847 28.4321C30.3157 28.5105 30.3468 28.5888 30.3787 28.6695C30.4812 28.9278 30.5848 29.1856 30.6885 29.4435C30.7596 29.6222 30.8306 29.8009 30.9015 29.9796C31.0481 30.349 31.1951 30.7182 31.3423 31.0873C31.6508 31.8614 31.9541 32.6374 32.2572 33.4136C32.3471 33.6437 32.4372 33.8737 32.5273 34.1036C32.5826 34.2449 32.6379 34.3862 32.6932 34.5274C32.7178 34.5902 32.7424 34.6529 32.7677 34.7175C32.8133 34.8342 32.8587 34.9508 32.904 35.0676C32.948 35.181 32.9927 35.2941 33.0379 35.4071C33.1851 35.7817 33.2436 36.0135 33.125 36.4064C32.9539 36.6082 32.815 36.7567 32.5781 36.8751C31.5161 36.8647 30.4553 36.6977 29.4037 36.5631C29.1863 36.5354 28.9688 36.5084 28.7512 36.4815C28.685 36.4728 28.6188 36.4641 28.5505 36.4551C28.4889 36.4475 28.4272 36.4399 28.3637 36.4321C28.3099 36.4253 28.2561 36.4184 28.2006 36.4113C27.9115 36.4021 27.7701 36.4511 27.5577 36.6499C27.4951 36.721 27.4326 36.7921 27.3682 36.8654C27.3169 36.9233 27.3169 36.9233 27.2645 36.9825C26.9826 37.3034 26.713 37.6341 26.4447 37.9664C26.0909 38.3967 25.723 38.815 25.3563 39.2343C25.2717 39.332 25.1879 39.4304 25.1048 39.5294C25.0633 39.5788 25.0217 39.6282 24.979 39.6791C24.9417 39.7238 24.9045 39.7686 24.8661 39.8147C24.7357 39.954 24.6432 39.9961 24.4541 40.0187C24.3941 40.0207 24.3342 40.0226 24.2725 40.0245C24.1835 40.0289 24.1835 40.0289 24.0927 40.0334C23.8239 39.9854 23.7123 39.8775 23.5156 39.6876C23.3992 39.4833 23.3185 39.2686 23.2364 39.0486C23.2113 38.9842 23.1862 38.9198 23.1603 38.8535C23.0774 38.6404 22.9963 38.4267 22.9151 38.213C22.8573 38.0635 22.7993 37.9141 22.7413 37.7646C22.619 37.4493 22.4973 37.1337 22.3761 36.818C22.0949 36.0865 21.8081 35.3571 21.5219 34.6275C21.4328 34.4002 21.3439 34.1727 21.2551 33.9452C21.2272 33.8736 21.1992 33.802 21.1704 33.7282C21.1163 33.5895 21.0622 33.4508 21.008 33.3121C20.8859 32.9995 20.7627 32.6874 20.6367 32.3764C20.6146 32.3216 20.5924 32.2669 20.5696 32.2105C20.5107 32.0655 20.4515 31.9207 20.3922 31.7759C20.3125 31.5626 20.3125 31.5626 20.3125 31.4064C20.1063 31.4064 19.9 31.4064 19.6875 31.4064C19.674 31.4482 19.6605 31.4899 19.6466 31.533C19.4973 31.9889 19.3317 32.4367 19.1577 32.8837C19.1291 32.9576 19.1005 33.0315 19.071 33.1076C18.8098 33.7817 18.547 34.4551 18.2841 35.1285C18.0736 35.6676 17.8646 36.2073 17.6568 36.7474C17.5235 37.0931 17.3892 37.4384 17.2547 37.7837C17.1906 37.9489 17.1269 38.1142 17.0636 38.2797C16.9752 38.5107 16.8853 38.7411 16.7951 38.9714C16.7693 39.0396 16.7436 39.1079 16.717 39.1783C16.5698 39.5491 16.447 39.7842 16.0938 40.0001C15.8513 40.0613 15.6353 40.0481 15.3906 40.0001C14.9741 39.7485 14.7041 39.3533 14.4028 38.9763C14.2302 38.7642 14.0516 38.5613 13.8672 38.3595C13.566 38.029 13.282 37.6877 13.0026 37.3387C12.9085 37.2252 12.9085 37.2252 12.8125 37.1095C12.7753 37.0479 12.738 36.9863 12.6996 36.9228C12.5437 36.6963 12.4201 36.5553 12.1875 36.4064C11.7218 36.3593 11.2847 36.4334 10.8252 36.5089C10.7038 36.5262 10.5824 36.5432 10.461 36.5597C10.219 36.5933 9.97731 36.6286 9.73577 36.6654C9.37762 36.7193 9.01894 36.7666 8.65937 36.8101C8.58062 36.8201 8.58062 36.8201 8.50027 36.8302C7.55578 36.9421 7.55578 36.9421 7.15821 36.7433C6.93357 36.5454 6.84907 36.4656 6.79689 36.172C6.90815 35.4656 7.19185 34.8129 7.45118 34.1505C7.50227 34.019 7.55331 33.8874 7.60432 33.7559C7.74583 33.3915 7.88807 33.0274 8.03056 32.6633C8.12983 32.4097 8.22899 32.156 8.32814 31.9023C8.67019 31.0274 9.01286 30.1527 9.3564 29.2784C9.38524 29.2049 9.41409 29.1315 9.44382 29.0558C9.47133 28.9858 9.49885 28.9158 9.5272 28.8437C9.56654 28.7428 9.56654 28.7428 9.60667 28.6399C9.66249 28.5002 9.72048 28.3614 9.78021 28.2234C9.80959 28.1547 9.83896 28.0859 9.86922 28.0151C9.89613 27.954 9.92303 27.8929 9.95074 27.8299C10.0251 27.5678 9.95362 27.397 9.85009 27.1528C9.74808 26.9118 9.67638 26.6676 9.60267 26.4165C9.57347 26.32 9.54426 26.2236 9.51417 26.1242C9.45409 25.9254 9.39447 25.7264 9.33534 25.5273C8.91249 24.1393 8.33423 23.4072 7.11427 22.6173C5.15355 21.3112 5.15355 21.3112 4.93867 20.2524C4.86479 19.4859 5.08766 18.7889 5.34181 18.0763C5.40437 17.8963 5.46683 17.7162 5.52919 17.5361C5.55892 17.4505 5.58865 17.3648 5.61929 17.2765C6.11193 15.8363 5.88523 14.8044 5.40193 13.4093C5.36515 13.3019 5.36515 13.3019 5.32764 13.1924C5.28 13.0543 5.23137 12.9164 5.18157 12.779C4.93895 12.0826 4.80511 11.3317 5.07814 10.6251C5.48964 9.81464 6.18972 9.32402 6.933 8.83833C8.50019 7.8142 9.02021 6.85865 9.56361 5.07469C9.83517 4.19521 10.1496 3.35175 10.9375 2.81263C11.4694 2.55175 11.9854 2.48871 12.5736 2.498C12.6962 2.49899 12.8188 2.49995 12.9414 2.5009C13.1326 2.50282 13.3236 2.50499 13.5147 2.50763C15.0776 2.52779 16.0669 2.28351 17.3126 1.30201C18.5033 0.364581 19.8042 -0.57063 21.3281 0.312633ZM18.3203 2.65638C17.1251 3.62398 15.9861 4.16761 14.4211 4.14289C14.2974 4.14191 14.1738 4.14094 14.0502 4.14C13.8582 4.13806 13.6662 4.13586 13.4742 4.13326C13.2869 4.13089 13.0996 4.12951 12.9123 4.12825C12.8556 4.12719 12.7988 4.12614 12.7404 4.12506C12.374 4.12328 12.0623 4.16826 11.7188 4.29701C11.3836 4.73549 11.2573 5.26858 11.0986 5.79115C11.0437 5.96658 10.9886 6.14196 10.9332 6.31727C10.907 6.40061 10.8807 6.48394 10.8537 6.5698C10.2886 8.34296 9.34755 9.26389 7.83063 10.2738C7.59864 10.4294 7.37054 10.5893 7.14357 10.7521C7.04674 10.8213 7.04674 10.8213 6.94795 10.8919C6.77865 11.0184 6.77865 11.0184 6.64064 11.2501C6.60782 11.701 6.66789 12.027 6.82313 12.4562C6.86159 12.5659 6.90005 12.6757 6.93849 12.7855C6.99896 12.9544 7.05984 13.1231 7.12106 13.2918C7.75764 15.0572 7.6769 16.4702 7.06056 18.2423C6.99974 18.4181 6.93928 18.594 6.87981 18.7702C6.84323 18.8786 6.8059 18.9867 6.76765 19.0945C6.65332 19.4324 6.61452 19.7225 6.64064 20.0783C6.87461 20.4973 7.31144 20.7375 7.70021 21.0011C7.84162 21.0988 7.98302 21.1966 8.1244 21.2944C8.3031 21.4171 8.48189 21.5397 8.66128 21.6615C10.0358 22.5958 10.5854 23.8105 11.0303 25.3517C11.0786 25.518 11.1272 25.6842 11.1768 25.8502C11.2212 25.999 11.2645 26.1481 11.3077 26.2973C11.4317 26.6312 11.5708 26.9202 11.8607 27.138C12.1023 27.2083 12.3215 27.2036 12.5729 27.2001C12.6256 27.1997 12.6782 27.1993 12.7325 27.1989C12.9008 27.1975 13.069 27.1951 13.2373 27.1925C15.2466 27.166 16.6667 27.3959 18.2813 28.672C18.417 28.7778 18.5531 28.8832 18.6893 28.9884C18.8164 29.0866 18.943 29.1854 19.0695 29.2842C19.5528 29.6472 19.5528 29.6472 20.1404 29.7282C20.5159 29.6397 20.7967 29.3755 21.0938 29.1408C21.3147 28.9693 21.5362 28.7986 21.7578 28.6281C21.8444 28.5614 21.8444 28.5614 21.9326 28.4933C22.9149 27.7417 23.8654 27.2701 25.1123 27.2169C25.1739 27.2138 25.2355 27.2107 25.299 27.2074C25.6903 27.1901 26.0802 27.1872 26.4719 27.1913C26.6084 27.1926 26.6084 27.1926 26.7478 27.1939C26.9277 27.1962 27.1076 27.1996 27.2874 27.2042C27.3703 27.2054 27.4531 27.2066 27.5385 27.2078C27.6121 27.2095 27.6857 27.2112 27.7615 27.213C28.0134 27.1822 28.1551 27.1015 28.3594 26.9533C28.7553 26.4155 28.8806 25.7395 29.0564 25.1047C29.6061 23.1336 30.6227 22.093 32.2809 21.0066C32.8853 20.6101 32.8853 20.6101 33.3594 20.0783C33.3922 19.6274 33.3321 19.3014 33.1769 18.8722C33.1384 18.7624 33.1 18.6527 33.0615 18.5429C33.0011 18.374 32.9402 18.2052 32.879 18.0366C32.2509 16.2948 32.3115 14.8704 32.9395 13.13C33.0004 12.9606 33.0609 12.7912 33.1202 12.6212C33.1567 12.5168 33.194 12.4127 33.2324 12.309C33.3625 11.9367 33.3928 11.639 33.3594 11.2501C33.0805 10.7527 32.432 10.4305 31.9678 10.1271C30.2824 8.99959 29.547 7.91622 28.9744 5.96806C28.7353 4.97646 28.7353 4.97646 28.125 4.21888C27.7908 4.12382 27.4583 4.13318 27.114 4.13862C26.9913 4.13961 26.8687 4.14058 26.7461 4.14152C26.555 4.14345 26.3639 4.14562 26.1728 4.14825C24.1564 4.17426 22.8542 3.59871 21.2857 2.34192C20.6977 1.85209 20.6977 1.85209 19.9899 1.6078C19.3501 1.70182 18.8097 2.25911 18.3203 2.65638ZM11.4063 28.7501C11.0813 29.435 10.8075 30.1348 10.5387 30.843C10.4109 31.1798 10.2821 31.5162 10.1532 31.8526C10.1273 31.9201 10.1015 31.9876 10.0748 32.0572C9.82292 32.7133 9.56381 33.3665 9.30177 34.0187C9.28139 34.0694 9.26101 34.1202 9.24001 34.1724C9.12905 34.4485 9.0178 34.7243 8.90626 35.0001C9.1761 35.1351 9.48228 35.0365 9.77357 34.9977C9.91975 34.9793 10.0659 34.9609 10.2121 34.9425C10.4425 34.9129 10.6729 34.8831 10.9033 34.8529C11.1256 34.824 11.348 34.7961 11.5704 34.7682C11.6385 34.759 11.7066 34.7498 11.7767 34.7403C12.7366 34.6213 12.7366 34.6213 13.1247 34.8628C13.1619 34.9049 13.199 34.947 13.2373 34.9904C13.2817 35.0396 13.3261 35.0889 13.3719 35.1396C13.5953 35.4085 13.8175 35.678 14.0366 35.9505C14.2135 36.1656 14.3969 36.3719 14.585 36.5773C14.8759 36.8963 15.1402 37.2267 15.3906 37.5783C15.5867 37.4038 15.6785 37.2511 15.7718 37.0068C15.7982 36.9384 15.8247 36.87 15.8519 36.7995C15.894 36.688 15.894 36.688 15.9369 36.5742C15.9668 36.4965 15.9967 36.4187 16.0275 36.3386C16.1251 36.0848 16.2217 35.8305 16.3184 35.5763C16.4518 35.2273 16.5856 34.8784 16.7194 34.5296C16.7525 34.4428 16.7857 34.3561 16.8199 34.2668C17.0205 33.7433 17.2254 33.2218 17.4359 32.7022C17.4602 32.642 17.4845 32.5817 17.5095 32.5197C17.692 32.0672 17.692 32.0672 17.7816 31.8505C17.8428 31.7024 17.9028 31.5538 17.9627 31.4052C17.9962 31.3236 18.0297 31.242 18.0642 31.1579C18.1319 30.9127 18.1315 30.7856 18.0469 30.547C17.9471 30.4205 17.9471 30.4205 17.8131 30.323C17.7649 30.2847 17.7167 30.2465 17.667 30.207C17.6151 30.1678 17.5632 30.1285 17.5098 30.088C17.4567 30.047 17.4037 30.006 17.349 29.9637C16.3642 29.2105 15.5776 28.7962 14.3207 28.7883C14.1949 28.7862 14.1949 28.7862 14.0666 28.784C13.8015 28.7798 13.5365 28.7772 13.2715 28.7745C13.0906 28.772 12.9098 28.7693 12.7289 28.7665C12.288 28.7599 11.8472 28.7545 11.4063 28.7501ZM26.7986 28.7706C26.6355 28.7732 26.4725 28.7754 26.3094 28.7772C26.0729 28.7798 25.8365 28.7839 25.6 28.7883C25.5281 28.7888 25.4562 28.7893 25.3821 28.7898C23.9591 28.8215 22.7738 29.7263 21.7969 30.7033C22.4154 32.3241 23.04 33.9426 23.6748 35.5571C23.7413 35.7264 23.8076 35.8957 23.8737 36.0651C23.9667 36.3034 24.0605 36.5414 24.1544 36.7793C24.1963 36.8872 24.1963 36.8872 24.2391 36.9974C24.265 37.0627 24.291 37.1281 24.3177 37.1954C24.3402 37.2526 24.3627 37.3099 24.3859 37.3689C24.4444 37.5151 24.4444 37.5151 24.6094 37.5783C24.6484 37.5298 24.6873 37.4814 24.7275 37.4315C25.1683 36.8877 25.6206 36.3553 26.0825 35.8293C26.2345 35.656 26.3829 35.481 26.5274 35.3013C26.5857 35.2309 26.644 35.1606 26.7041 35.088C26.753 35.027 26.8018 34.966 26.8521 34.9031C27.2971 34.562 27.9478 34.7006 28.4692 34.7655C28.5447 34.7742 28.6201 34.783 28.6978 34.7921C28.9366 34.82 29.1753 34.849 29.4141 34.8781C29.5768 34.8973 29.7396 34.9165 29.9024 34.9356C30.2996 34.9824 30.6967 35.0301 31.0938 35.0783C30.588 33.7252 30.0668 32.3787 29.5361 31.0353C29.4928 30.9253 29.4928 30.9253 29.4485 30.8131C29.3649 30.601 29.281 30.3891 29.1971 30.1771C29.16 30.0831 29.16 30.0831 29.1222 29.9872C28.9565 29.57 28.779 29.1591 28.5938 28.7501C27.9953 28.7501 27.3969 28.7604 26.7986 28.7706Z" fill="#093254"/>
<path d="M22.8125 5.70297C22.8684 5.71888 22.9243 5.73479 22.9819 5.75119C24.3279 6.14709 25.5794 6.81796 26.6406 7.73422C26.6827 7.76985 26.7247 7.80547 26.768 7.84218C28.6741 9.47005 29.8207 11.6811 30.2344 14.1405C30.2489 14.2229 30.2634 14.3054 30.2783 14.3904C30.5848 17.0532 29.887 19.863 28.2177 21.9815C28.0097 22.2371 27.796 22.4871 27.5781 22.7342C27.5196 22.8008 27.4611 22.8674 27.4008 22.9359C25.6399 24.8045 23.0229 25.9314 20.4687 26.0155C20.3975 26.0186 20.3263 26.0217 20.253 26.0249C17.4323 26.0903 14.7765 25.0139 12.7365 23.0803C11.1237 21.5012 10.1515 19.4781 9.76561 17.2655C9.75121 17.1849 9.7368 17.1043 9.72197 17.0213C9.42663 14.4286 10.0416 11.7352 11.5777 9.60586C11.7493 9.39285 11.927 9.18799 12.1094 8.98422C12.2068 8.87002 12.2068 8.87002 12.3062 8.75351C13.6647 7.18538 15.5098 6.15672 17.5 5.62484C17.5887 5.59977 17.6774 5.57469 17.7688 5.54886C19.3528 5.17502 21.256 5.24885 22.8125 5.70297ZM13.2812 10.1561C11.8844 11.8363 11.1489 14.151 11.3281 16.328C11.5215 18.1875 12.1664 19.9333 13.4375 21.328C13.4851 21.3866 13.5328 21.4452 13.5818 21.5056C14.968 23.1831 17.074 24.0559 19.1849 24.3333C21.5271 24.5557 23.7727 23.7931 25.582 22.3202C27.3947 20.7967 28.4173 18.6636 28.6719 16.328C28.8617 14.0655 28.0742 11.8163 26.6406 10.078C25.1366 8.36106 23.0275 7.17265 20.7246 7.01667C17.7949 6.88045 15.2355 7.94984 13.2812 10.1561Z" fill="#093254"/>
<path d="M20.0439 9.71692C20.1004 9.71591 20.1569 9.7149 20.2151 9.71387C20.5622 9.81647 20.7519 10.1072 20.9307 10.4072C20.978 10.5004 21.0245 10.594 21.0703 10.688C21.0953 10.7382 21.1204 10.7883 21.1463 10.84C21.1988 10.9456 21.251 11.0513 21.3028 11.1572C21.3816 11.3179 21.4616 11.478 21.5419 11.638C21.5931 11.7412 21.6442 11.8445 21.6953 11.9478C21.7189 11.995 21.7425 12.0422 21.7668 12.0908C21.9197 12.4053 22.022 12.7102 22.1094 13.047C22.1817 13.0547 22.254 13.0623 22.3285 13.0702C23.0583 13.1502 23.7853 13.2482 24.5117 13.3546C24.6 13.3669 24.6883 13.3792 24.7793 13.3919C24.9049 13.4108 24.9049 13.4108 25.033 13.43C25.1076 13.4409 25.1822 13.4517 25.259 13.4629C25.5469 13.5354 25.7816 13.6464 25.9619 13.8868C26.0695 14.239 26.0667 14.5094 25.8984 14.839C25.5613 15.2519 25.1844 15.6152 24.7803 15.962C24.7299 16.0064 24.6796 16.0509 24.6277 16.0966C24.4934 16.2147 24.3571 16.3304 24.22 16.4451C24.1397 16.5167 24.0595 16.5884 23.9795 16.6603C23.9045 16.7251 23.8294 16.79 23.7521 16.8568C23.5122 17.2396 23.5953 17.5371 23.6719 17.9689C23.6946 18.1033 23.6946 18.1033 23.7177 18.2404C23.7863 18.633 23.8594 19.0247 23.9343 19.4162C24.1064 20.3624 24.1064 20.3624 23.9844 20.8595C23.7398 21.1459 23.6032 21.2413 23.2269 21.2791C22.8468 21.2686 22.57 21.1237 22.2424 20.9425C22.1834 20.9113 22.1243 20.8801 22.0634 20.8479C21.8763 20.7488 21.6901 20.648 21.5039 20.547C21.3165 20.4462 21.129 20.3458 20.941 20.2461C20.8245 20.1842 20.7083 20.1216 20.5925 20.0583C20.3164 19.9108 20.1632 19.8439 19.8437 19.8439C19.6791 19.9042 19.6791 19.9042 19.5126 19.9928C19.4491 20.0249 19.3856 20.057 19.3201 20.09C19.2528 20.1248 19.1855 20.1596 19.1162 20.1954C19.0468 20.2305 18.9774 20.2656 18.9059 20.3018C18.5803 20.4672 18.2577 20.6364 17.9398 20.8162C17.8624 20.8594 17.8624 20.8594 17.7835 20.9036C17.6455 20.9815 17.5086 21.0611 17.3718 21.1409C17.0406 21.2788 16.8409 21.2817 16.4844 21.2501C16.2158 21.0939 16.2158 21.0939 16.0156 20.8595C15.9252 20.4083 15.9461 20.0374 16.0324 19.5891C16.0429 19.5302 16.0534 19.4713 16.0643 19.4106C16.0977 19.2245 16.1322 19.0386 16.167 18.8527C16.2013 18.6659 16.2352 18.4791 16.2689 18.2922C16.2898 18.1765 16.311 18.0608 16.3328 17.9452C16.4147 17.5291 16.4147 17.5291 16.4062 17.1095C16.2887 16.937 16.2887 16.937 16.1206 16.783C16.06 16.7232 15.9994 16.6635 15.9369 16.602C15.8726 16.5407 15.8084 16.4793 15.7422 16.4161C15.6804 16.3554 15.6185 16.2947 15.5548 16.2321C15.2145 15.9002 14.8663 15.5804 14.5042 15.2724C14.2027 15.0017 13.9955 14.7571 13.9648 14.3507C13.9864 14.0327 14.004 13.9063 14.2187 13.672C14.8211 13.4219 15.4512 13.3426 16.0926 13.253C16.2754 13.2275 16.4581 13.201 16.6408 13.1744C16.7576 13.1576 16.8744 13.1409 16.9913 13.1242C17.0456 13.1164 17.0998 13.1086 17.1558 13.1005C17.4049 13.066 17.6382 13.047 17.8906 13.047C17.9111 12.9812 17.9317 12.9155 17.9528 12.8477C18.0526 12.5617 18.1726 12.2898 18.302 12.0164C18.3267 11.9643 18.3514 11.9121 18.3768 11.8583C18.4289 11.7487 18.4812 11.6391 18.5336 11.5296C18.5867 11.4183 18.6392 11.3067 18.6913 11.1948C18.7671 11.0319 18.8444 10.8698 18.9221 10.7078C18.9448 10.6583 18.9676 10.6088 18.991 10.5579C19.2007 10.1283 19.5243 9.70762 20.0439 9.71692ZM19.9219 12.5001C19.9003 12.5478 19.8786 12.5954 19.8564 12.6445C19.757 12.8621 19.6564 13.0791 19.5557 13.296C19.5217 13.371 19.4877 13.446 19.4527 13.5232C19.0855 14.3092 19.0855 14.3092 18.75 14.5314C18.4229 14.6177 18.0942 14.6612 17.7588 14.7023C17.581 14.7256 17.4033 14.7495 17.2256 14.774C17.1471 14.7838 17.0686 14.7936 16.9877 14.8036C16.7838 14.8285 16.7838 14.8285 16.6406 15.0001C16.832 15.1961 17.0243 15.3911 17.2168 15.5861C17.2714 15.642 17.326 15.6978 17.3822 15.7554C17.4346 15.8083 17.4869 15.8612 17.5409 15.9156C17.6133 15.9893 17.6133 15.9893 17.6872 16.0644C17.8047 16.189 17.8047 16.189 17.9687 16.172C18.2891 16.7726 18.1132 17.5332 18.0078 18.174C17.9966 18.2449 17.9855 18.3159 17.9739 18.3891C17.9467 18.5616 17.9189 18.734 17.8906 18.9064C18.104 18.8073 18.3172 18.708 18.5303 18.6085C18.5903 18.5807 18.6504 18.5528 18.7123 18.5241C19.0224 18.3791 19.3172 18.226 19.6094 18.047C20.0834 17.8816 20.4304 18.0783 20.8594 18.2814C21.2786 18.4848 21.6945 18.6943 22.1094 18.9064C22.085 18.7338 22.0606 18.5613 22.0361 18.3888C22.0157 18.2447 22.0157 18.2447 21.9949 18.0977C21.9689 17.9203 21.9411 17.7432 21.9104 17.5667C21.8416 17.1339 21.8 16.7297 21.9824 16.3234C22.2299 16.0464 22.5003 15.806 22.7798 15.562C22.9994 15.363 23.1791 15.1563 23.3594 14.922C23.0107 14.8381 22.6656 14.7654 22.3102 14.7169C22.2484 14.708 22.1866 14.6992 22.1229 14.69C21.9984 14.6724 21.8737 14.6561 21.7488 14.6411C21.4582 14.5989 21.2806 14.5531 21.0379 14.3806C20.786 14.0422 20.618 13.6792 20.4443 13.296C20.4088 13.2195 20.3733 13.143 20.3368 13.0642C20.2498 12.8765 20.1636 12.6885 20.0781 12.5001C20.0266 12.5001 19.975 12.5001 19.9219 12.5001Z" fill="#093254"/>
</g>
<defs>
<clipPath id="clip0_116_940">
<rect width="40" height="40" fill="white"/>
</clipPath>
</defs>
</svg>
