<svg width="21" height="21" viewBox="0 0 21 21" fill="none" xmlns="http://www.w3.org/2000/svg">
<path d="M12.3869 0.161835C12.4324 0.168599 12.4779 0.175363 12.5248 0.182332C13.0413 0.263469 13.5347 0.350136 13.8701 0.790995C14.0215 1.05372 14.0353 1.30458 13.9623 1.59419C13.8412 1.95078 13.6341 2.1612 13.3164 2.3564C12.9277 2.51003 12.4269 2.3812 12.0278 2.30721C10.4095 2.00726 8.67998 2.20497 7.18025 2.88269C7.13354 2.90362 7.13354 2.90362 7.08588 2.92497C6.35583 3.25712 5.71937 3.69285 5.13653 4.24312C5.07285 4.29699 5.00899 4.35065 4.94493 4.40406C3.61401 5.5702 2.8068 7.24607 2.46022 8.95603C2.44912 9.0104 2.43801 9.06476 2.42657 9.12077C2.07441 11.2355 2.64095 13.4423 3.86528 15.1842C4.0581 15.4523 4.2689 15.696 4.49539 15.9366C4.57788 16.0247 4.65443 16.113 4.729 16.2076C5.95223 17.6218 8.06859 18.4862 9.90522 18.6248C12.0375 18.7326 14.2143 18.1784 15.8469 16.7455C15.9378 16.6629 16.0282 16.5796 16.1178 16.4955C16.206 16.4132 16.2944 16.3367 16.3892 16.2623C16.9431 15.7846 17.377 15.1228 17.7395 14.4949C17.7875 14.4137 17.7875 14.4137 17.8365 14.3307C18.4576 13.2479 18.7736 11.9957 18.8264 10.7538C18.8631 9.89857 18.8631 9.89857 19.1871 9.59069C19.4685 9.36921 19.7685 9.30326 20.1239 9.34472C20.4632 9.41028 20.6596 9.60045 20.8538 9.87918C21.3449 11.3502 20.4941 13.6941 19.8567 14.9976C19.4028 15.889 18.8355 16.7054 18.148 17.4321C18.0533 17.5327 17.964 17.6345 17.8764 17.7411C17.7184 17.927 17.5367 18.0795 17.3502 18.2361C17.311 18.2709 17.2718 18.3057 17.2314 18.3416C15.6681 19.7005 13.7054 20.513 11.657 20.7626C11.6047 20.769 11.5524 20.7754 11.4985 20.782C8.76736 21.0454 6.03932 20.2078 3.92002 18.479C3.7276 18.3152 3.54331 18.1436 3.36186 17.9678C3.28884 17.8973 3.21486 17.828 3.1407 17.7588C1.27555 15.9898 0.259261 13.3368 0.159505 10.8027C0.0904485 7.87522 1.21214 5.19533 3.21597 3.09013C3.87599 2.40694 4.60656 1.85185 5.42849 1.3765C5.4603 1.35799 5.49211 1.33947 5.52488 1.3204C6.72384 0.631572 8.05028 0.235403 9.41862 0.0646614C9.46736 0.058273 9.5161 0.0518846 9.56631 0.0453026C10.5077 -0.0547778 11.4543 0.0229058 12.3869 0.161835Z" fill="#8D8D8D" fill-opacity="0.5"/>
<path d="M18.5668 4.58344C18.7815 4.81867 18.8287 5.06453 18.8229 5.37335C18.781 5.81171 18.5547 6.08277 18.2572 6.39197C18.136 6.51947 18.0257 6.65063 17.916 6.78806C17.7278 7.0211 17.5279 7.2397 17.3232 7.458C17.1715 7.62064 17.0274 7.78676 16.8881 7.96022C16.7022 8.19154 16.5042 8.40783 16.3013 8.62411C16.1496 8.78673 16.0056 8.95285 15.8662 9.1263C15.6803 9.35762 15.4823 9.57392 15.2794 9.79019C15.1277 9.95282 14.9837 10.1189 14.8443 10.2924C14.6585 10.5237 14.4604 10.74 14.2576 10.9563C14.1059 11.1189 13.9618 11.285 13.8225 11.4585C13.6366 11.6898 13.4386 11.9061 13.2357 12.1224C13.084 12.285 12.94 12.4511 12.8006 12.6245C12.6149 12.8557 12.4171 13.0719 12.2143 13.2879C12.0579 13.4554 11.9102 13.6271 11.7666 13.8058C11.1716 14.539 11.1716 14.539 10.6839 14.6056C10.3562 14.6222 10.0679 14.519 9.82565 14.3007C9.76436 14.2409 9.70372 14.1805 9.64362 14.1195C9.6101 14.0865 9.57658 14.0534 9.54205 14.0194C9.43208 13.9106 9.32303 13.801 9.21401 13.6914C9.13749 13.6151 9.06094 13.5389 8.98435 13.4628C8.82424 13.3032 8.66458 13.1433 8.50522 12.983C8.3013 12.7781 8.09631 12.5742 7.89097 12.3706C7.73277 12.2135 7.57516 12.0559 7.41772 11.898C7.34238 11.8226 7.26685 11.7474 7.19114 11.6724C7.08526 11.5673 6.9802 11.4614 6.87531 11.3554C6.84415 11.3247 6.81298 11.2941 6.78086 11.2625C6.53812 11.0144 6.40467 10.7679 6.38354 10.4138C6.40094 10.0588 6.53228 9.80231 6.79335 9.56244C7.05348 9.36608 7.34558 9.30053 7.66696 9.34494C7.95004 9.40516 8.11749 9.53096 8.3117 9.74047C8.39277 9.82647 8.47651 9.90087 8.56717 9.97657C8.77229 10.1526 8.96092 10.3436 9.15109 10.5353C9.36202 10.748 9.57291 10.9549 9.8023 11.1478C10.0587 11.3768 10.2964 11.627 10.5379 11.8714C10.7948 11.6695 10.9905 11.4491 11.1939 11.1941C11.3265 11.0334 11.4658 10.8814 11.6084 10.7297C11.8254 10.4984 12.0288 10.2601 12.2275 10.0128C12.3705 9.84068 12.5224 9.67754 12.6749 9.51392C12.8195 9.3579 12.9563 9.1979 13.0895 9.03216C13.2766 8.79998 13.4755 8.58254 13.6793 8.36525C13.831 8.20262 13.9751 8.0365 14.1144 7.86304C14.2771 7.6606 14.4478 7.46929 14.6254 7.28C14.8423 7.04869 15.0457 6.81043 15.2444 6.56316C15.3874 6.39102 15.5393 6.22789 15.6918 6.06427C15.8364 5.90825 15.9732 5.74824 16.1065 5.58251C16.2978 5.34495 16.5009 5.12122 16.7099 4.89936C16.8179 4.78452 16.9214 4.66924 17.0196 4.54586C17.143 4.39321 17.2723 4.31865 17.4568 4.25548C17.8939 4.21668 18.2198 4.30979 18.5668 4.58344Z" fill="#78A003"/>
</svg>
