<svg width="40" height="40" viewBox="0 0 40 40" fill="none" xmlns="http://www.w3.org/2000/svg">
<circle cx="20" cy="20" r="20" fill="#78A003"/>
<path d="M21.5052 9.15388C21.5528 9.19289 21.6 9.23245 21.6464 9.27286C21.9508 9.52317 22.2362 9.60291 22.6258 9.60212C22.6823 9.60224 22.7387 9.60235 22.7969 9.60247C22.9599 9.59681 23.115 9.57754 23.2761 9.55232C23.926 9.50671 24.5411 9.73554 25.0358 10.15C25.373 10.4735 25.5674 10.8636 25.7359 11.2955C25.9658 11.8613 26.3857 12.0337 26.9161 12.2729C27.5602 12.5754 27.9485 13.0411 28.2022 13.701C28.2761 13.9336 28.2855 14.1543 28.2842 14.3972C28.2844 14.4299 28.2846 14.4625 28.2847 14.4962C28.2844 14.6834 28.2687 14.8573 28.2344 15.0419C28.1895 15.5285 28.3489 15.8959 28.6328 16.2815C29.1061 16.9289 29.3043 17.5151 29.1878 18.3288C29.0827 18.807 28.8458 19.1675 28.5369 19.539C28.2791 19.8792 28.2111 20.2466 28.2344 20.6643C28.2415 20.7049 28.2487 20.7456 28.256 20.7874C28.3662 21.4803 28.2488 22.1253 27.836 22.7008C27.476 23.1933 26.9447 23.4789 26.375 23.6747C26.3458 23.6747 26.3166 23.6747 26.2865 23.6747C26.4248 24.0571 26.5712 24.4346 26.733 24.8078C26.7485 24.8437 26.764 24.8795 26.7799 24.9165C26.8437 25.0641 26.9076 25.2116 26.9724 25.3588C27.0205 25.4682 27.0677 25.5779 27.1148 25.6877C27.1295 25.7204 27.1442 25.7531 27.1593 25.7869C27.2532 26.0081 27.2829 26.1788 27.2604 26.4195C27.1479 26.5519 27.0764 26.5896 26.9063 26.6215C26.7235 26.5872 26.6721 26.5168 26.5521 26.3752C26.4836 26.2488 26.4311 26.1175 26.3787 25.9837C26.3635 25.9462 26.3483 25.9087 26.3326 25.8701C26.2844 25.7509 26.237 25.6315 26.1896 25.512C26.1573 25.4316 26.125 25.3513 26.0925 25.2711C26.0204 25.0922 25.9489 24.9132 25.8777 24.734C25.837 24.6317 25.7962 24.5295 25.7552 24.4273C25.6638 24.5644 25.6005 24.7013 25.5311 24.8507C25.2463 25.4336 24.8097 25.8227 24.1947 26.0377C23.8396 26.1448 23.4973 26.1866 23.1301 26.1323C22.603 26.0594 22.109 26.0658 21.6697 26.3908C21.5954 26.4476 21.5223 26.5053 21.4506 26.5654C21.3231 26.6712 21.2158 26.74 21.0605 26.7989C20.8023 26.922 20.7358 27.1794 20.6392 27.4322C20.6193 27.4799 20.5994 27.5275 20.5789 27.5766C20.4086 28.0023 20.478 28.2375 20.6497 28.6483C20.666 28.6875 20.6822 28.7268 20.6989 28.7673C20.7332 28.8501 20.7676 28.9329 20.8022 29.0156C20.8548 29.1416 20.9068 29.2678 20.9587 29.3941C20.9922 29.4748 21.0257 29.5554 21.0592 29.6361C21.0747 29.6736 21.0901 29.7111 21.1059 29.7497C21.2588 30.1131 21.4315 30.4233 21.8151 30.581C21.9481 30.6 21.9481 30.6 22.0918 30.6003C22.1395 30.6021 22.1872 30.6039 22.2364 30.6057C22.5958 30.5481 22.8214 30.2962 23.052 30.0331C23.5926 29.4387 24.2691 28.9776 25.0912 28.8987C25.3782 28.891 25.665 28.8945 25.9519 28.9052C26.2834 28.9142 26.4912 28.899 26.7735 28.7216C26.8173 28.707 26.8611 28.6924 26.9063 28.6773C26.9558 28.6044 26.9558 28.6044 26.9948 28.5002C27.0121 28.4616 27.0121 28.4616 27.0298 28.4222C27.1388 28.1629 27.1747 27.933 27.0834 27.6591C27.0584 27.3448 27.0584 27.3448 27.1525 27.1942C27.3013 27.1027 27.3986 27.1064 27.5703 27.1278C27.7633 27.2425 27.801 27.3636 27.8562 27.5731C27.9519 28.0916 27.855 28.5236 27.5897 28.9734C27.3443 29.3185 26.968 29.5698 26.5521 29.6513C26.296 29.6651 26.0404 29.6563 25.7843 29.6486C24.9925 29.6267 24.352 29.8017 23.7701 30.3516C23.6198 30.4981 23.4811 30.6524 23.3452 30.8122C23.0671 31.1286 22.7623 31.3207 22.335 31.3505C21.8153 31.3709 21.4077 31.3145 21.0017 30.9656C20.6661 30.6531 20.5003 30.3001 20.3319 29.8835C20.2959 29.7946 20.2591 29.7059 20.2223 29.6172C20.0443 29.1833 20.0443 29.1833 20.0443 29.0315C20.0151 29.0315 19.9859 29.0315 19.9558 29.0315C19.9479 29.0779 19.9479 29.0779 19.94 29.1252C19.8845 29.3739 19.7771 29.6065 19.6818 29.8422C19.661 29.8952 19.6402 29.9483 19.6188 30.0029C19.4028 30.5377 19.0918 31.0276 18.5419 31.2672C18.1154 31.4017 17.5393 31.4204 17.1318 31.2201C16.8467 31.0348 16.6203 30.7925 16.3957 30.5402C15.9596 30.0521 15.4761 29.7587 14.8203 29.6513C14.7188 29.6497 14.6172 29.6506 14.5156 29.6532C14.456 29.6542 14.3964 29.6551 14.3368 29.656C14.2442 29.6577 14.1515 29.6596 14.0589 29.6622C13.4905 29.6776 13.0574 29.5975 12.6168 29.2205C12.2923 28.8897 12.119 28.4667 12.0977 28.0077C12.1234 27.3165 12.5054 26.6289 12.7701 26.0017C12.808 25.9114 12.8459 25.821 12.8838 25.7306C12.9594 25.5503 13.035 25.37 13.1108 25.1898C13.1296 25.1449 13.1485 25.1001 13.1679 25.0538C13.2083 24.9579 13.2487 24.8619 13.2891 24.7659C13.3507 24.6194 13.4122 24.4728 13.4737 24.3262C13.4927 24.2812 13.5117 24.2362 13.5312 24.1898C13.5487 24.1481 13.5662 24.1063 13.5842 24.0633C13.6073 24.0083 13.6073 24.0083 13.6309 23.9522C13.6661 23.8602 13.6921 23.7707 13.7136 23.6747C13.6749 23.662 13.6363 23.6494 13.5965 23.6363C12.7841 23.3621 12.2569 22.9625 11.8755 22.1944C11.7505 21.8937 11.7075 21.6252 11.7131 21.3007C11.7131 21.2686 11.7131 21.2365 11.7132 21.2035C11.7147 21.019 11.7322 20.8463 11.7657 20.6643C11.8105 20.1777 11.6511 19.8103 11.3672 19.4247C10.894 18.7773 10.6957 18.1911 10.8123 17.3774C10.9174 16.8992 11.1543 16.5387 11.4632 16.1672C11.721 15.827 11.789 15.4596 11.7657 15.0419C11.7585 15.0013 11.7514 14.9606 11.744 14.9188C11.6339 14.2259 11.7513 13.5809 12.1641 13.0054C12.4742 12.5811 12.8889 12.3289 13.3732 12.1366C13.8076 11.9638 14.0872 11.7169 14.2813 11.2866C14.3203 11.1957 14.3588 11.1045 14.397 11.0133C14.6441 10.4256 15.0245 10.0167 15.6044 9.7422C16.0121 9.5824 16.4345 9.50795 16.8684 9.57445C17.3701 9.64155 17.8528 9.65212 18.2707 9.34203C18.3308 9.29422 18.3907 9.24625 18.4506 9.19815C19.3804 8.49042 20.5505 8.45204 21.5052 9.15388ZM18.791 9.85853C18.3545 10.1866 17.9236 10.3133 17.3853 10.3105C17.3479 10.3104 17.3104 10.3104 17.2719 10.3104C17.0635 10.3092 16.8594 10.2997 16.652 10.2773C16.1841 10.233 15.8194 10.406 15.454 10.6895C15.1974 10.9224 15.0577 11.2305 14.931 11.5473C14.639 12.2691 14.154 12.5889 13.4642 12.9012C12.9531 13.1384 12.6887 13.4135 12.474 13.9351C12.4235 14.0886 12.4238 14.2335 12.4242 14.3944C12.4241 14.4432 12.424 14.4919 12.4238 14.5421C12.4295 14.6832 12.4502 14.8144 12.474 14.9534C12.5241 15.6947 12.322 16.269 11.8513 16.834C11.5523 17.2235 11.4655 17.6136 11.5 18.0966C11.5659 18.4967 11.7834 18.7751 12.0256 19.0896C12.3288 19.4977 12.4807 19.9535 12.4795 20.4623C12.4797 20.5348 12.4797 20.5348 12.4799 20.6088C12.4741 20.7493 12.4535 20.8801 12.4297 21.0185C12.3881 21.5502 12.4813 21.9787 12.8302 22.3914C13.0721 22.6376 13.3559 22.7657 13.6693 22.8972C13.9556 23.0176 14.1947 23.1484 14.4219 23.3648C14.4632 23.4034 14.4632 23.4034 14.5053 23.4428C14.7441 23.6894 14.8632 23.9826 14.9974 24.2945C15.2367 24.823 15.5016 25.1166 16.0352 25.3625C16.1619 25.4059 16.2752 25.4211 16.4086 25.4317C16.4523 25.4355 16.496 25.4394 16.541 25.4433C16.6953 25.4458 16.837 25.4236 16.9896 25.4013C17.7806 25.3465 18.3813 25.4952 19.0039 26.0045C19.4198 26.3306 19.8395 26.3874 20.3542 26.331C20.7073 26.2462 20.9685 26.0552 21.2452 25.8296C21.5597 25.5781 21.9536 25.396 22.3616 25.3954C22.4166 25.3953 22.4166 25.3953 22.4727 25.3952C22.5114 25.3953 22.5501 25.3955 22.5899 25.3957C22.6296 25.3958 22.6693 25.3958 22.7102 25.3958C22.9255 25.3969 23.1365 25.4057 23.3508 25.4289C23.8172 25.4735 24.182 25.2991 24.5461 25.0167C24.8027 24.7838 24.9423 24.4757 25.069 24.1589C25.3611 23.4371 25.8461 23.1173 26.5359 22.805C27.047 22.5678 27.3114 22.2927 27.5261 21.7711C27.5766 21.6176 27.5763 21.4727 27.5759 21.3118C27.576 21.2387 27.576 21.2387 27.5762 21.1641C27.5705 21.023 27.5498 20.8918 27.5261 20.7528C27.4758 20.0089 27.6803 19.4335 28.1519 18.866C28.4394 18.499 28.5481 18.0712 28.5 17.6096C28.4191 17.23 28.2599 16.9723 28.0131 16.6799C27.6892 16.2599 27.5193 15.775 27.5205 15.2439C27.5204 15.1956 27.5203 15.1472 27.5202 15.0974C27.5259 14.9569 27.5466 14.8261 27.5703 14.6877C27.612 14.156 27.5187 13.7275 27.1698 13.3148C26.928 13.0686 26.6441 12.9405 26.3308 12.809C26.0444 12.6886 25.8054 12.5578 25.5782 12.3414C25.5507 12.3156 25.5231 12.2899 25.4948 12.2634C25.2559 12.0168 25.1368 11.7236 25.0026 11.4117C24.7633 10.8831 24.4985 10.5899 23.965 10.3437C23.8375 10.3001 23.723 10.285 23.5887 10.2745C23.5445 10.2707 23.5003 10.2668 23.4547 10.2629C23.3148 10.2606 23.1926 10.2816 23.0547 10.3049C22.2562 10.3628 21.625 10.2152 20.9961 9.70173C20.257 9.12198 19.4757 9.33517 18.791 9.85853ZM14.2448 24.3388C13.6499 25.7606 13.6499 25.7606 13.0633 27.1859C13.044 27.2335 13.0246 27.2811 13.0046 27.3301C12.8492 27.713 12.7514 28.0226 12.9177 28.4198C13.0529 28.6712 13.3143 28.8541 13.5808 28.9429C13.6736 28.9446 13.7665 28.9435 13.8594 28.941C14.9063 28.9207 15.876 29.0107 16.6691 29.7678C16.8656 29.9631 17.0494 30.1705 17.23 30.3804C17.4306 30.5779 17.6123 30.6447 17.8916 30.6474C18.2344 30.6388 18.41 30.5355 18.6448 30.2961C18.8093 30.0928 18.8966 29.8495 18.9956 29.6098C19.0178 29.5571 19.04 29.5044 19.0628 29.4502C19.1399 29.2667 19.2158 29.0827 19.2917 28.8987C19.3227 28.8237 19.3537 28.7488 19.3847 28.6738C19.5437 28.2892 19.702 27.9044 19.8594 27.5192C19.873 27.486 19.8866 27.4529 19.9006 27.4187C19.9519 27.293 20.0014 27.1681 20.0443 27.0393C20.002 27.035 19.9597 27.0306 19.9162 27.0262C19.3075 26.9558 18.8967 26.7979 18.4063 26.4195C18.3368 26.3689 18.2667 26.319 18.196 26.2701C18.167 26.2497 18.138 26.2292 18.1081 26.2082C17.8682 26.0783 17.635 26.054 17.3659 26.057C17.3107 26.0573 17.2554 26.0576 17.1985 26.0579C17.0376 26.0652 16.8831 26.085 16.724 26.1096C16.1012 26.1533 15.4855 25.9434 15.0057 25.5479C14.6526 25.2114 14.4596 24.7889 14.2891 24.3388C14.2745 24.3388 14.2599 24.3388 14.2448 24.3388Z" fill="white"/>
<path d="M24.1767 13.1648C24.2926 13.2711 24.4048 13.3807 24.5157 13.4922C24.5509 13.5274 24.5862 13.5627 24.6225 13.599C25.6992 14.7366 26.252 16.2744 26.2533 17.8252C26.2533 17.8559 26.2534 17.8867 26.2534 17.9184C26.2527 18.3897 26.2277 18.8332 26.1094 19.2916C26.1021 19.3215 26.0947 19.3515 26.0871 19.3823C25.8508 20.3289 25.4154 21.1628 24.7813 21.9036C24.7504 21.9399 24.7196 21.9762 24.6877 22.0136C23.6923 23.1522 22.335 23.8595 20.8412 24.0729C20.8036 24.0787 20.766 24.0844 20.7272 24.0904C19.147 24.2916 17.5024 23.8348 16.237 22.8776C16.0382 22.7228 15.8485 22.5594 15.6615 22.3906C15.6266 22.3594 15.5918 22.3283 15.5558 22.2962C14.5196 21.3176 13.8188 19.8143 13.7507 18.3898C13.7487 18.22 13.7469 18.0503 13.7468 17.8805C13.7468 17.8497 13.7467 17.819 13.7467 17.7873C13.7474 17.316 13.7724 16.8725 13.8907 16.414C13.898 16.3841 13.9054 16.3542 13.913 16.3234C14.1322 15.445 14.5239 14.5713 15.1303 13.8906C15.2728 13.8193 15.4189 13.8199 15.573 13.8463C15.6864 13.9376 15.6864 13.9376 15.75 14.0677C15.7404 14.3211 15.6577 14.4699 15.5038 14.6626C14.6285 15.8282 14.3422 17.3346 14.5447 18.7648C14.5704 18.913 14.6042 19.0579 14.6433 19.2031C14.6516 19.2344 14.6599 19.2657 14.6685 19.2979C14.8788 20.0577 15.2411 20.7694 15.75 21.3724C15.7863 21.4158 15.8225 21.4592 15.8599 21.504C16.8029 22.6001 18.167 23.2477 19.6016 23.3646C20.7012 23.4299 21.7394 23.1853 22.7006 22.6562C22.7604 22.6242 22.7604 22.6242 22.8215 22.5915C24.1131 21.8625 24.9653 20.6004 25.3646 19.1929C25.4616 18.7495 25.5058 18.3176 25.5035 17.8639C25.5032 17.8117 25.503 17.7595 25.5027 17.7058C25.497 17.2922 25.4636 16.9024 25.3568 16.5026C25.3485 16.4712 25.3402 16.4398 25.3316 16.4075C25.1212 15.6479 24.7589 14.9362 24.25 14.3333C24.2138 14.2899 24.1776 14.2464 24.1402 14.2017C23.1971 13.1055 21.8332 12.4582 20.3985 12.3411C19.1073 12.2638 17.7657 12.5924 16.7434 13.4064C16.4864 13.6077 16.4864 13.6077 16.3034 13.6194C16.1485 13.5807 16.1485 13.5807 16.0378 13.4866C15.9591 13.3358 15.94 13.2613 15.9714 13.0937C16.0429 13 16.1015 12.9443 16.1928 12.8724C16.2236 12.847 16.2545 12.8216 16.2863 12.7954C17.1165 12.1511 18.1251 11.7805 19.1589 11.6328C19.1965 11.627 19.2341 11.6213 19.2729 11.6153C21.0427 11.39 22.852 11.987 24.1767 13.1648Z" fill="white"/>
<path d="M21.9479 14.0234C22.1402 14.1866 22.2399 14.3923 22.2774 14.6392C22.2928 15.0415 22.1812 15.2928 21.9479 15.6172C21.9333 15.6318 21.9187 15.6464 21.9037 15.6615C21.9679 15.6639 21.9679 15.6639 22.0334 15.6665C22.6328 15.6967 23.1311 15.7924 23.5555 16.2508C23.7891 16.5427 23.9005 16.8764 23.903 17.2465C23.9034 17.2982 23.9038 17.35 23.9043 17.4033C23.9046 17.487 23.9046 17.487 23.9048 17.5724C23.9051 17.63 23.9053 17.6877 23.9056 17.7471C23.9061 17.8692 23.9063 17.9914 23.9065 18.1135C23.9067 18.2689 23.9078 18.4243 23.9091 18.5796C23.9101 18.729 23.9102 18.8784 23.9104 19.0278C23.9109 19.083 23.9115 19.1383 23.912 19.1952C23.9106 19.7494 23.7999 20.1247 23.417 20.5273C22.9794 20.9436 22.5017 20.9565 21.9287 20.9532C21.8541 20.9533 21.7795 20.9535 21.7049 20.9537C21.5491 20.954 21.3933 20.9536 21.2375 20.9528C21.039 20.9518 20.8406 20.9523 20.6421 20.9534C20.4882 20.954 20.3342 20.9538 20.1803 20.9534C20.1072 20.9533 20.0341 20.9534 19.9609 20.9538C19.5831 20.9555 19.251 20.9487 18.9017 20.7831C18.8046 20.7426 18.8046 20.7426 18.7065 20.7821C18.6458 20.8154 18.5853 20.8488 18.5247 20.8823C18.2844 20.9785 18.0132 20.9574 17.7574 20.9552C17.6567 20.9546 17.5562 20.9561 17.4556 20.9578C17.0875 20.9598 16.7631 20.9387 16.4583 20.7083C16.1755 20.4117 16.0908 20.1231 16.0913 19.7152C16.091 19.6787 16.0907 19.6421 16.0904 19.6045C16.0896 19.4843 16.0894 19.364 16.0893 19.2438C16.089 19.1597 16.0887 19.0757 16.0884 18.9917C16.0879 18.8157 16.0877 18.6397 16.0878 18.4637C16.0878 18.239 16.0866 18.0142 16.0851 17.7894C16.0841 17.6159 16.0839 17.4424 16.0839 17.2688C16.0838 17.186 16.0834 17.1032 16.0828 17.0203C16.0761 16.1371 16.0761 16.1371 16.3636 15.7808C16.405 15.7464 16.405 15.7464 16.4473 15.7113C16.4744 15.6876 16.5016 15.664 16.5296 15.6397C16.8665 15.4272 17.1731 15.4191 17.5643 15.4228C17.6535 15.4235 17.7426 15.4228 17.8318 15.4219C18.2498 15.4232 18.5395 15.4736 18.8932 15.7057C19.1271 15.5042 19.3558 15.2972 19.5829 15.088C19.7317 14.9512 19.8825 14.8174 20.0356 14.6854C20.1157 14.6142 20.1938 14.5419 20.2715 14.4682C20.2965 14.4447 20.3215 14.4211 20.3473 14.3969C20.3966 14.3503 20.4457 14.3035 20.4945 14.2564C20.9356 13.8409 21.3962 13.7195 21.9479 14.0234ZM21.0819 14.729C21.0426 14.7655 21.0032 14.8019 20.9627 14.8395C20.9226 14.877 20.8825 14.9145 20.8412 14.9531C20.7675 15.0197 20.6937 15.0861 20.6198 15.1523C20.5833 15.1852 20.5468 15.2181 20.5091 15.252C20.1771 15.5508 20.1771 15.5508 20.0669 15.6499C19.9914 15.7179 19.9158 15.7861 19.8404 15.8543C19.8027 15.8883 19.765 15.9224 19.7261 15.9575C19.6758 16.003 19.6758 16.003 19.6246 16.0493C19.513 16.1484 19.513 16.1484 19.4357 16.2034C19.2739 16.3239 19.2105 16.3816 19.1644 16.5846C19.1628 16.6495 19.1629 16.7145 19.1644 16.7794C19.164 16.8151 19.1636 16.8507 19.1632 16.8875C19.1623 17.0048 19.1637 17.1219 19.1651 17.2391C19.1651 17.3208 19.165 17.4025 19.1648 17.4842C19.1648 17.655 19.1658 17.8259 19.1676 17.9967C19.1699 18.2159 19.1698 18.4349 19.1689 18.6541C19.1684 18.8226 19.1691 18.9911 19.1701 19.1596C19.1704 19.2405 19.1705 19.3213 19.1703 19.4021C19.1701 19.5149 19.1714 19.6276 19.1731 19.7404C19.1728 19.7738 19.1725 19.8073 19.1722 19.8418C19.1722 19.9457 19.1722 19.9457 19.2031 20.0885C19.3639 20.2388 19.5206 20.2381 19.7339 20.2385C19.7642 20.2388 19.7945 20.239 19.8257 20.2392C19.9252 20.2398 20.0248 20.2394 20.1244 20.239C20.1939 20.2391 20.2634 20.2392 20.3329 20.2394C20.4785 20.2396 20.624 20.2393 20.7695 20.2387C20.9557 20.2379 21.1418 20.2383 21.3279 20.2391C21.4714 20.2396 21.6149 20.2395 21.7585 20.2391C21.8271 20.239 21.8957 20.2391 21.9643 20.2395C22.0604 20.2398 22.1564 20.2393 22.2525 20.2385C22.3344 20.2384 22.3344 20.2384 22.4179 20.2382C22.6527 20.2118 22.8273 20.1212 22.9772 19.9391C22.9985 19.9141 23.0197 19.8891 23.0416 19.8634C23.1625 19.6848 23.1987 19.5239 23.2004 19.3102C23.2009 19.2617 23.2015 19.2133 23.2021 19.1633C23.2022 19.1113 23.2023 19.0594 23.2024 19.0058C23.2027 18.9519 23.203 18.8981 23.2033 18.8425C23.2037 18.7286 23.2039 18.6147 23.2039 18.5008C23.2041 18.3271 23.2057 18.1534 23.2074 17.9797C23.2077 17.8689 23.2078 17.7581 23.2079 17.6472C23.2086 17.5955 23.2092 17.5438 23.2098 17.4906C23.208 17.1659 23.1761 16.9017 22.9479 16.6569C22.708 16.443 22.4896 16.4013 22.1772 16.4004C22.11 16.3993 22.0427 16.3982 21.9754 16.397C21.87 16.3958 21.7646 16.3947 21.6592 16.3939C21.557 16.3929 21.4549 16.3912 21.3527 16.3893C21.3212 16.3893 21.2896 16.3893 21.2571 16.3893C21.0398 16.385 21.0398 16.385 20.9333 16.3101C20.8591 16.1968 20.8469 16.1059 20.8412 15.9714C20.8906 15.8591 20.8906 15.8591 20.9684 15.7472C20.9967 15.7055 21.0249 15.6637 21.054 15.6206C21.1223 15.5247 21.1911 15.4293 21.2605 15.3343C21.2787 15.309 21.2968 15.2838 21.3155 15.2578C21.3674 15.1859 21.4203 15.1147 21.4732 15.0436C21.5582 14.8934 21.5768 14.8129 21.5495 14.6432C21.328 14.4956 21.2599 14.5618 21.0819 14.729ZM16.8568 16.3255C16.7893 16.4605 16.8048 16.6016 16.804 16.7498C16.8036 16.7844 16.8033 16.819 16.8029 16.8547C16.8018 16.9696 16.801 17.0845 16.8004 17.1993C16.8002 17.2386 16.7999 17.2778 16.7997 17.3182C16.7985 17.5257 16.7977 17.7332 16.797 17.9407C16.7963 18.155 16.7943 18.3694 16.792 18.5838C16.7906 18.7486 16.79 18.9133 16.7898 19.0781C16.7895 19.1572 16.7888 19.2362 16.7878 19.3152C16.7864 19.4259 16.7864 19.5364 16.7867 19.6471C16.786 19.6797 16.7852 19.7123 16.7845 19.7459C16.7866 19.919 16.8075 19.9936 16.9163 20.1309C17.0607 20.242 17.1382 20.2498 17.3189 20.2507C17.3731 20.251 17.4273 20.2513 17.4831 20.2516C17.5394 20.2508 17.5957 20.2499 17.6537 20.249C17.7381 20.2503 17.7381 20.2503 17.8242 20.2516C17.8784 20.2513 17.9326 20.251 17.9885 20.2507C18.0378 20.2505 18.0872 20.2503 18.138 20.25C18.3207 20.2114 18.3792 20.1455 18.4948 20C18.5165 19.8741 18.5248 19.7748 18.5227 19.6492C18.5231 19.6146 18.5234 19.5799 18.5237 19.5442C18.5245 19.43 18.5236 19.3159 18.5226 19.2017C18.5227 19.1222 18.5228 19.0426 18.523 18.9631C18.5231 18.7965 18.5224 18.63 18.5212 18.4634C18.5197 18.25 18.52 18.0368 18.5208 17.8234C18.5213 17.6592 18.5209 17.495 18.5202 17.3308C18.52 17.2521 18.52 17.1734 18.5203 17.0948C18.5205 16.9848 18.5196 16.8749 18.5184 16.7649C18.5187 16.7325 18.519 16.7001 18.5193 16.6667C18.5153 16.4527 18.4697 16.3429 18.3177 16.1927C18.1263 16.097 17.8722 16.1363 17.662 16.1346C17.6093 16.1333 17.5567 16.132 17.5024 16.1307C17.4516 16.1303 17.4008 16.13 17.3484 16.1296C17.3019 16.1289 17.2554 16.1283 17.2075 16.1276C17.0462 16.1536 16.9733 16.2134 16.8568 16.3255Z" fill="white"/>
</svg>
