<svg width="40" height="36" viewBox="0 0 40 36" fill="none" xmlns="http://www.w3.org/2000/svg">
<path d="M16.2206 0.0207263C16.298 0.0202411 16.3755 0.0197559 16.4552 0.019256C16.5823 0.0191135 16.5823 0.0191135 16.712 0.0189682C16.8014 0.0185463 16.8908 0.0181244 16.9829 0.0176898C17.2793 0.016447 17.5756 0.0158694 17.872 0.0154001C18.0777 0.0149115 18.2835 0.0144222 18.4893 0.0139325C18.921 0.0130393 19.3527 0.012543 19.7845 0.012247C20.3376 0.011781 20.8907 0.00973941 21.4438 0.00732116C21.869 0.00573847 22.2941 0.00529617 22.7193 0.00516601C22.9232 0.0049088 23.1271 0.00422648 23.331 0.00311101C23.6163 0.0016614 23.9017 0.00182118 24.187 0.00237264C24.2712 0.00158967 24.3554 0.000806698 24.4421 0C24.9831 0.00327371 25.3758 0.0712935 25.7922 0.43062C25.8347 0.479799 25.8773 0.528979 25.9211 0.579648C25.9648 0.628608 26.0085 0.677568 26.0535 0.728012C26.2726 1.04494 26.2611 1.37281 26.2635 1.74411C26.2643 1.84962 26.2652 1.95512 26.2661 2.06381C26.2665 2.1787 26.2669 2.29359 26.2672 2.40848C26.2677 2.52678 26.2682 2.64509 26.2688 2.7634C26.2697 3.01125 26.2702 3.25909 26.2705 3.50693C26.271 3.82369 26.2731 4.14042 26.2757 4.45716C26.2773 4.70151 26.2778 4.94585 26.2779 5.1902C26.2782 5.30694 26.2789 5.42367 26.2801 5.5404C26.2816 5.70406 26.2813 5.86774 26.2809 6.0314C26.2812 6.12434 26.2815 6.21728 26.2818 6.31304C26.2331 6.70416 26.1003 6.99111 25.7821 7.24441C25.387 7.3988 25.0677 7.39645 24.6701 7.24972C24.3379 6.97647 24.2208 6.66789 24.18 6.25968C24.1722 5.98227 24.1731 5.70601 24.177 5.42853C24.1774 5.32753 24.1778 5.22653 24.1782 5.12246C24.1796 4.80128 24.183 4.48014 24.1864 4.15897C24.1877 3.94063 24.1889 3.72229 24.19 3.50395C24.1927 2.96993 24.198 2.436 24.2031 1.90198C23.293 1.90198 22.3829 1.90198 21.4453 1.90198C21.4629 2.60996 21.4629 2.60996 21.4854 3.31781C21.4943 4.02719 21.4943 4.02719 21.3506 4.27369C21.084 4.53356 20.8619 4.61723 20.489 4.65285C20.1939 4.65029 20.0352 4.60169 19.8051 4.4245C19.4879 4.10678 19.4772 3.89246 19.4795 3.47026C19.4797 3.38809 19.48 3.30592 19.4802 3.22126C19.481 3.11712 19.4818 3.01298 19.4826 2.90568C19.4845 2.57446 19.4863 2.24324 19.4882 1.90198C18.5781 1.90198 17.6681 1.90198 16.7304 1.90198C16.7304 4.25732 16.7304 6.61267 16.7304 9.03938C17.6533 9.03643 18.5762 9.03347 19.5271 9.03042C20.1117 9.02912 20.6963 9.02788 21.2809 9.02694C22.2089 9.02542 23.1369 9.02365 24.0648 9.02015C24.7407 9.01761 25.4165 9.01597 26.0924 9.0154C26.4501 9.01507 26.8078 9.01429 27.1655 9.01243C27.5026 9.0107 27.8396 9.01017 28.1766 9.01055C28.3 9.01048 28.4234 9.00998 28.5467 9.009C29.9701 8.99823 29.9701 8.99823 30.5244 9.44033C30.5649 9.49028 30.6054 9.54022 30.6471 9.59168C30.6892 9.64163 30.7313 9.69157 30.7746 9.74303C30.9843 10.0479 30.9766 10.3253 30.9798 10.6796C30.9809 10.7902 30.9821 10.9008 30.9832 11.0148C30.984 11.1358 30.9846 11.2567 30.9852 11.3777C30.9856 11.4387 30.9859 11.4997 30.9863 11.5625C30.9882 11.8854 30.9894 12.2083 30.9903 12.5312C30.9913 12.8641 30.9943 13.1969 30.9979 13.5297C31.0002 13.7862 31.0009 14.0427 31.0012 14.2993C31.0017 14.4219 31.0027 14.5446 31.0044 14.6673C31.0065 14.8393 31.0062 15.0113 31.0058 15.1833C31.0066 15.3299 31.0066 15.3299 31.0074 15.4795C30.9541 15.8141 30.8266 15.9983 30.6082 16.2618C30.3324 16.4255 30.1784 16.4322 29.852 16.4211C29.5125 16.34 29.345 16.2378 29.0959 16.0068C28.9795 15.7846 28.9962 15.6218 28.9968 15.373C28.9968 15.2761 28.9968 15.1791 28.9968 15.0792C28.9973 14.9742 28.9977 14.8691 28.9982 14.7609C28.9984 14.6 28.9984 14.6 28.9986 14.4358C28.999 14.1506 28.9998 13.8653 29.0008 13.5801C29.0017 13.2891 29.0021 12.998 29.0026 12.707C29.0035 12.1359 29.0052 11.5648 29.0069 10.9937C28.0968 10.9937 27.1868 10.9937 26.2491 10.9937C26.2597 11.6139 26.2597 11.6139 26.2732 12.2341C26.2772 12.7031 26.2731 13.0588 25.9823 13.4578C25.6827 13.6641 25.4504 13.7343 25.0871 13.7127C24.7121 13.6502 24.5248 13.4925 24.292 13.2029C24.199 12.9401 24.1927 12.6969 24.1944 12.4209C24.1946 12.3458 24.1948 12.2708 24.1951 12.1934C24.1963 12.0517 24.1963 12.0517 24.1975 11.9071C24.1993 11.6057 24.2012 11.3042 24.2031 10.9937C23.293 10.9937 22.3829 10.9937 21.4453 10.9937C21.4453 12.1713 21.4453 13.349 21.4453 14.5624C21.6508 14.5904 21.8563 14.6185 22.068 14.6473C22.2572 14.7062 22.2572 14.7062 22.416 14.775C22.4769 14.8011 22.5379 14.8272 22.6007 14.8541C22.6649 14.8826 22.7292 14.9111 22.7953 14.9404C22.8645 14.9704 22.9336 15.0005 23.0048 15.0314C23.7533 15.359 24.4931 15.704 25.2318 16.0512C25.6326 16.2395 26.0339 16.427 26.4351 16.6146C26.5129 16.651 26.5908 16.6875 26.6711 16.725C27.248 16.9949 27.8263 17.2619 28.4064 17.5257C29.1162 17.8486 29.8252 18.173 30.5333 18.4992C30.6956 18.5739 30.8579 18.6485 31.0202 18.7232C31.328 18.865 31.6354 19.0077 31.9426 19.1507C31.9984 19.1765 32.0542 19.2023 32.1117 19.2289C32.2814 19.3075 32.4506 19.3867 32.6199 19.466C32.72 19.5127 32.8202 19.5594 32.9233 19.6075C33.578 19.9488 33.9519 20.4272 34.1666 21.105C34.3243 21.6612 34.2477 22.1457 34.0894 22.6932C34.0702 22.7613 34.051 22.8293 34.0312 22.8995C33.6931 24.0816 33.3269 25.2566 32.966 26.4325C32.885 26.6968 32.8041 26.9612 32.7232 27.2255C32.623 27.5531 32.5228 27.8807 32.4225 28.2082C32.3929 28.3047 32.3929 28.3047 32.3628 28.4031C32.1594 29.0676 31.9553 29.7319 31.7487 30.3956C31.6649 30.6648 31.5813 30.9342 31.4977 31.2035C31.4389 31.3927 31.3796 31.5818 31.3204 31.7709C31.2848 31.8853 31.2493 31.9998 31.2138 32.1143C31.167 32.2639 31.167 32.2639 31.1194 32.4165C31.0418 32.6598 31.0418 32.6598 31.053 32.9157C31.1261 32.8644 31.1993 32.8132 31.2747 32.7604C32.4349 31.9615 33.425 31.6419 34.8783 31.7261C35.7945 31.8774 36.5242 32.2631 37.2524 32.7989C37.7896 33.1932 38.1965 33.4181 38.8815 33.4999C39.2984 33.5621 39.5711 33.6214 39.86 33.9353C39.9702 34.2512 39.9973 34.5418 39.949 34.87C39.7364 35.2159 39.5433 35.347 39.1483 35.4648C37.837 35.5258 36.8947 35.0372 35.8857 34.3094C35.2783 33.8804 34.7582 33.6535 33.9887 33.6804C33.3568 33.7957 32.898 34.1055 32.3836 34.4637C31.256 35.2451 30.1317 35.6119 28.7303 35.4286C27.7143 35.2394 26.9525 34.7578 26.1557 34.1484C25.5981 33.7364 25.0127 33.6316 24.3254 33.707C23.7067 33.8383 23.2336 34.2407 22.7399 34.6004C21.7555 35.3108 20.7154 35.5417 19.4882 35.4648C18.3551 35.3017 17.499 34.7687 16.6172 34.1013C15.9977 33.6774 15.329 33.6844 14.5954 33.7654C14.2557 33.8878 13.9916 34.0635 13.7058 34.2752C12.5158 35.1403 11.4803 35.5548 9.96949 35.4648C8.90575 35.307 8.14229 34.8324 7.29708 34.2309C6.59659 33.7378 6.02399 33.6942 5.16565 33.7654C4.71838 33.8716 4.3816 34.1552 4.01525 34.4117C3.93518 34.4677 3.93518 34.4677 3.85349 34.5248C3.80011 34.5623 3.74673 34.5998 3.69173 34.6384C2.81455 35.2413 1.80825 35.5882 0.717657 35.4648C0.351948 35.2901 0.154868 35.1468 0.00597813 34.785C-0.021915 34.4032 0.04584 34.099 0.250618 33.7707C0.628634 33.5416 0.966183 33.5259 1.40536 33.4736C2.0567 33.3659 2.51654 32.9895 3.03061 32.613C4.02912 31.8862 5.06857 31.6303 6.32213 31.7261C7.45566 31.8915 8.31033 32.4214 9.19317 33.0896C9.51236 33.308 9.75303 33.4255 10.1474 33.4255C10.1234 33.3475 10.0994 33.2694 10.0747 33.189C9.54765 31.4736 9.02153 29.758 8.49711 28.0419C8.22897 27.1644 7.96002 26.2873 7.68822 25.4108C7.56969 25.028 7.45224 24.6448 7.33514 24.2615C7.28307 24.092 7.23051 23.9226 7.17741 23.7534C6.53498 21.7041 6.53498 21.7041 6.99281 20.6334C7.37693 20.0183 7.83011 19.6949 8.49609 19.3791C8.60557 19.3244 8.60557 19.3244 8.71727 19.2687C9.12944 19.0673 9.52225 18.9302 9.96949 18.8108C9.96909 18.7068 9.9687 18.6027 9.96829 18.4955C9.96468 17.5141 9.96201 16.5327 9.96027 15.5513C9.95934 15.0468 9.95808 14.5423 9.95606 14.0377C9.95413 13.5507 9.95307 13.0637 9.95261 12.5767C9.95228 12.391 9.95164 12.2053 9.95068 12.0196C9.94938 11.7593 9.94921 11.499 9.94929 11.2386C9.94865 11.1621 9.94801 11.0856 9.94735 11.0067C9.9495 10.3762 10.0142 9.84634 10.5032 9.37926C10.9729 9.09157 11.3676 9.09048 11.9064 9.09946C11.9886 9.09982 12.0708 9.10018 12.1555 9.10055C12.4165 9.10197 12.6775 9.10517 12.9385 9.10842C13.1161 9.1097 13.2937 9.11086 13.4712 9.11191C13.9053 9.11471 14.3393 9.1191 14.7733 9.12435C14.7724 8.97436 14.7724 8.97436 14.7715 8.82134C14.7661 7.87868 14.7621 6.93603 14.7595 5.99337C14.7581 5.50874 14.7562 5.02413 14.7532 4.53951C14.7503 4.07177 14.7487 3.60404 14.748 3.13629C14.7475 2.95789 14.7465 2.7795 14.7451 2.6011C14.7432 2.35111 14.7429 2.10116 14.743 1.85116C14.7421 1.77751 14.7411 1.70386 14.7401 1.62798C14.7427 1.14333 14.8182 0.774931 15.1736 0.40274C15.5289 0.138492 15.7734 0.0224059 16.2206 0.0207263ZM12.0156 10.9937C12.0156 13.2369 12.0156 15.48 12.0156 17.7912C12.4685 17.648 12.4685 17.648 12.8959 17.4686C12.9588 17.4393 13.0217 17.41 13.0865 17.3797C13.1531 17.3483 13.2198 17.3168 13.2885 17.2844C13.3592 17.2513 13.43 17.2182 13.5029 17.1841C13.6538 17.1135 13.8047 17.0427 13.9556 16.9718C14.1913 16.861 14.4272 16.7507 14.6632 16.6406C15.2285 16.3766 15.7937 16.1123 16.3586 15.8476C16.6287 15.7213 16.8991 15.5958 17.1697 15.4705C17.2418 15.4365 17.3139 15.4025 17.3882 15.3674C18.0767 15.05 18.7617 14.8226 19.4882 14.5624C19.4882 13.3847 19.4882 12.207 19.4882 10.9937C18.5781 10.9937 17.6681 10.9937 16.7304 10.9937C16.7153 11.6736 16.7153 11.6736 16.7039 12.3536C16.7012 12.4388 16.6985 12.524 16.6957 12.6117C16.6938 12.6985 16.692 12.7853 16.69 12.8747C16.6296 13.1773 16.5072 13.3226 16.2856 13.5427C16.0195 13.643 15.769 13.6526 15.485 13.6277C15.1364 13.4612 14.9865 13.3888 14.8623 13.0329C14.849 12.8762 14.8402 12.7191 14.8341 12.5619C14.829 12.4387 14.829 12.4387 14.8239 12.313C14.82 12.2088 14.8162 12.1047 14.8122 11.9974C14.7994 11.6662 14.7866 11.3349 14.7733 10.9937C13.8633 10.9937 12.9532 10.9937 12.0156 10.9937ZM18.7814 16.7998C18.718 16.8293 18.6546 16.8588 18.5892 16.8892C18.4525 16.9529 18.3157 17.0166 18.179 17.0805C17.8198 17.2481 17.4603 17.4153 17.1009 17.5824C17.0296 17.6156 16.9584 17.6487 16.885 17.6828C16.338 17.9372 15.7897 18.1892 15.2404 18.4391C14.3862 18.8279 13.5344 19.2211 12.6831 19.6153C12.0805 19.8944 11.4777 20.1728 10.873 20.4475C10.7799 20.4898 10.6869 20.532 10.591 20.5756C10.42 20.6531 10.2489 20.7305 10.0777 20.8076C9.86282 20.9051 9.64923 21.0048 9.43573 21.105C9.373 21.1323 9.31027 21.1597 9.24564 21.1878C9.05253 21.2736 9.05253 21.2736 8.81301 21.4449C8.68443 21.8593 8.75546 22.1556 8.88201 22.564C8.90896 22.6526 8.90896 22.6526 8.93645 22.743C8.99629 22.9388 9.05772 23.1341 9.11915 23.3295C9.1619 23.4682 9.20455 23.607 9.24709 23.7459C9.36113 24.117 9.47652 24.4877 9.59219 24.8584C9.71116 25.2403 9.82893 25.6226 9.94679 26.0049C10.0879 26.4623 10.2291 26.9197 10.3709 27.3769C10.6432 28.2547 10.9126 29.1332 11.1774 30.0131C11.2067 30.1103 11.236 30.2074 11.2662 30.3075C11.4822 31.0237 11.4822 31.0237 11.5866 31.3729C11.6564 31.6064 11.727 31.8397 11.7977 32.073C11.8274 32.1735 11.8274 32.1735 11.8578 32.2761C11.9624 32.6291 11.9624 32.6291 12.1935 32.9157C12.2741 32.8635 12.3547 32.8112 12.4378 32.7574C13.5613 32.0408 13.5613 32.0408 14.2396 31.8961C14.3258 31.8768 14.412 31.8575 14.5009 31.8377C15.9765 31.6938 17.1468 32.0433 18.2984 32.9316C18.9046 33.3959 19.4253 33.6313 20.211 33.5901C20.8505 33.4975 21.2794 33.2279 21.7958 32.8644C22.9716 32.0369 24.1328 31.6466 25.6042 31.8589C26.5767 32.0685 27.3971 32.5971 28.1597 33.1859C28.3714 33.3317 28.492 33.3759 28.74 33.4255C28.7678 33.3337 28.7678 33.3337 28.7962 33.2401C28.9791 32.6365 29.162 32.033 29.3451 31.4294C29.4646 31.0351 29.5841 30.6408 29.7034 30.2464C30.116 28.8826 30.5311 27.5195 30.9561 26.1591C31.0747 25.7791 31.1927 25.3989 31.3108 25.0187C31.4233 24.6566 31.5369 24.2949 31.6514 23.9333C31.7052 23.7627 31.7584 23.5918 31.8114 23.4209C31.8757 23.2134 31.941 23.0062 32.0073 22.7994C32.2336 22.1231 32.2336 22.1231 32.1205 21.4449C31.894 21.2634 31.644 21.1513 31.3769 21.033C31.301 20.9972 31.2252 20.9615 31.147 20.9246C30.9879 20.8499 30.8282 20.7762 30.6681 20.7034C30.4439 20.6014 30.2212 20.4969 29.9988 20.3911C29.5732 20.1891 29.1456 19.991 28.7178 19.7933C28.5641 19.722 28.4103 19.6507 28.2566 19.5794C27.3977 19.1813 26.5379 18.7851 25.6757 18.3937C25.1683 18.163 24.6626 17.9291 24.1575 17.6936C24.0232 17.6311 23.8889 17.5685 23.7546 17.506C23.5551 17.4131 23.3558 17.3201 23.1566 17.2268C22.9717 17.1402 22.7866 17.0539 22.6014 16.9677C22.5465 16.9418 22.4915 16.916 22.4349 16.8893C22.111 16.739 21.7875 16.6226 21.4453 16.5167C21.445 16.5645 21.4447 16.6124 21.4444 16.6617C21.4372 17.8261 21.429 18.9906 21.4197 20.155C21.4153 20.7181 21.4112 21.2812 21.4078 21.8443C21.4045 22.3875 21.4004 22.9308 21.3957 23.474C21.394 23.6814 21.3927 23.8889 21.3916 24.0964C21.3901 24.3865 21.3876 24.6766 21.3847 24.9667C21.3844 25.096 21.3844 25.096 21.3841 25.2278C21.3831 25.3069 21.3821 25.3861 21.3811 25.4676C21.3806 25.5362 21.3801 25.6048 21.3796 25.6755C21.3535 25.8859 21.2931 26.0227 21.1784 26.2031C20.91 26.4004 20.6189 26.4081 20.2861 26.401C20.0092 26.3569 19.8573 26.2214 19.6661 26.0332C19.5613 25.8329 19.5649 25.7114 19.5631 25.488C19.5622 25.4091 19.5613 25.3302 19.5604 25.249C19.5599 25.1622 19.5594 25.0754 19.5589 24.986C19.558 24.8948 19.5571 24.8036 19.5562 24.7097C19.5534 24.4071 19.5512 24.1046 19.549 23.8021C19.5472 23.5928 19.5453 23.3835 19.5434 23.1742C19.5385 22.6224 19.5341 22.0706 19.5298 21.5189C19.5253 20.9562 19.5204 20.3935 19.5155 19.8308C19.5059 18.7261 19.4969 17.6214 19.4882 16.5167C19.2572 16.5167 18.99 16.7021 18.7814 16.7998Z" fill="white"/>
</svg>
