<svg width="86" height="49" viewBox="0 0 86 49" fill="none" xmlns="http://www.w3.org/2000/svg">
<path d="M16.8376 42.0533C17.7087 42.4446 18.1664 42.9228 18.5854 43.7903C18.9126 44.782 18.8708 45.9375 18.5377 46.9193C17.8902 47.8123 17.1873 48.4634 16.125 48.7924C14.9973 48.9563 14.0757 48.9072 13.1416 48.2217C12.4244 47.5843 11.785 46.8806 11.6783 45.8981C11.6739 44.7539 11.676 43.8139 12.5156 42.944C13.8505 41.7309 15.0888 41.425 16.8376 42.0533Z" fill="white"/>
<path d="M30.9578 42.2347C31.2727 42.4409 31.2727 42.4409 31.4191 42.7666C31.4356 43.0924 31.4356 43.0924 31.12 43.4589C31.0092 43.5529 30.8983 43.647 30.7841 43.7439C30.6564 43.6901 30.5288 43.6364 30.3973 43.581C29.6439 43.3732 28.9542 43.3095 28.178 43.4181C27.7001 43.7107 27.4496 43.8977 27.2008 44.3954C27.1315 45.148 27.109 45.8146 27.4145 46.5128C27.6934 46.874 27.6934 46.874 28.178 47.1644C28.832 47.2081 29.4764 47.1785 30.1326 47.1644C30.1326 46.4656 30.1326 45.7669 30.1326 45.0469C30.6163 45.0469 31.1001 45.0469 31.5985 45.0469C31.5985 46.0144 31.5985 46.9819 31.5985 47.9788C30.3878 48.6909 29.4262 49.0329 28.0152 48.7931C27.046 48.424 26.3146 47.6852 25.7348 46.8386C25.3999 45.8337 25.367 44.6195 25.7387 43.6224C26.9793 41.5901 28.895 41.4237 30.9578 42.2347Z" fill="white"/>
<path d="M51.3863 41.9357C51.6935 42.089 51.9902 42.2629 52.2841 42.4403C52.1843 42.9227 52.0799 43.1538 51.7954 43.5804C51.0218 43.4379 51.0218 43.4379 50.6553 43.2547C49.8974 43.205 49.8974 43.205 49.1894 43.4176C49.1894 43.6863 49.1894 43.9551 49.1894 44.2319C49.3681 44.2813 49.5467 44.3306 49.7308 44.3815C49.9678 44.4503 50.2046 44.5192 50.4415 44.5882C50.559 44.6203 50.6765 44.6523 50.7975 44.6853C51.5889 44.9202 52.0923 45.1838 52.6098 45.8607C52.7987 46.6116 52.7168 47.2885 52.3553 47.968C51.4864 48.7032 50.7109 48.8749 49.5966 48.8409C48.769 48.7426 48.0915 48.4407 47.3977 47.9782C47.4975 47.4958 47.6019 47.2647 47.8863 46.838C48.2374 46.9132 48.5143 46.9866 48.8229 47.174C49.3965 47.4129 49.8722 47.366 50.4924 47.3266C50.6537 47.2191 50.8149 47.1116 50.981 47.0009C50.9273 46.7859 50.8735 46.5709 50.8182 46.3494C50.663 46.3118 50.5078 46.2742 50.348 46.2355C50.1437 46.1824 49.9394 46.1292 49.7289 46.0745C49.5267 46.0235 49.3245 45.9725 49.1162 45.9199C48.4783 45.675 48.168 45.394 47.7235 44.8835C47.6697 44.8297 47.616 44.776 47.5606 44.7206C47.4736 43.9505 47.4455 43.2999 47.8253 42.6133C48.8537 41.7203 50.0845 41.4637 51.3863 41.9357Z" fill="white"/>
<path d="M84.6944 41.9741C85.0879 42.1681 85.4643 42.3724 85.8371 42.6034C85.8371 43.2549 85.8371 43.2549 85.5114 43.6214C85.4039 43.7154 85.2964 43.8095 85.1856 43.9064C84.8598 43.7435 84.5341 43.5806 84.2083 43.4178C83.31 43.3165 82.6388 43.2444 81.9077 43.8148C81.7565 44.0214 81.7565 44.0214 81.6023 44.2322C81.5485 44.2859 81.4948 44.3397 81.4394 44.395C81.3528 45.2408 81.3004 45.9551 81.7448 46.6957C82.2762 47.1646 82.5944 47.1935 83.2921 47.2047C83.5258 47.211 83.5258 47.211 83.7642 47.2174C84.2742 47.156 84.4724 46.9989 84.8598 46.6753C85.1958 46.6753 85.1958 46.6753 85.5114 46.8382C85.7964 47.2556 85.7964 47.2556 86 47.6526C84.9505 48.5801 84.1755 48.884 82.7539 48.8526C81.6588 48.7216 80.8949 48.1947 80.2076 47.3472C79.5963 46.3277 79.647 45.2156 79.8106 44.0693C80.1276 43.0473 80.877 42.4625 81.7963 41.9639C82.777 41.5889 83.7154 41.6012 84.6944 41.9741Z" fill="white"/>
<path d="M58.9619 41.9521C60.7357 41.9521 62.5094 41.9521 64.3369 41.9521C64.3369 42.3821 64.3369 42.8121 64.3369 43.2552C63.6919 43.2552 63.0469 43.2552 62.3824 43.2552C62.3824 45.0289 62.3824 46.8027 62.3824 48.6302C61.8986 48.6302 61.4149 48.6302 60.9165 48.6302C60.9165 46.8564 60.9165 45.0827 60.9165 43.2552C60.2715 43.2552 59.6265 43.2552 58.9619 43.2552C58.9619 42.8252 58.9619 42.3952 58.9619 41.9521Z" fill="white"/>
<path d="M0.651367 41.9521C1.13512 41.9521 1.61887 41.9521 2.11728 41.9521C2.11728 43.7259 2.11728 45.4997 2.11728 47.3272C3.13853 47.3272 4.15978 47.3272 5.21198 47.3272C5.21198 47.7572 5.21198 48.1872 5.21198 48.6302C3.70698 48.6302 2.20198 48.6302 0.651367 48.6302C0.651367 46.4264 0.651367 44.2227 0.651367 41.9521Z" fill="white"/>
<path d="M38.928 41.9521C39.4117 41.9521 39.8955 41.9521 40.3939 41.9521C40.3939 44.2097 40.3939 46.4672 40.3939 48.7931C39.9101 48.7931 39.4264 48.7931 38.928 48.7931C38.928 46.5356 38.928 44.2781 38.928 41.9521Z" fill="white"/>
<path d="M71.3408 41.9521C71.7708 41.9521 72.2008 41.9521 72.6439 41.9521C72.6439 44.1559 72.6439 46.3597 72.6439 48.6302C72.2139 48.6302 71.7839 48.6302 71.3408 48.6302C71.3408 46.4264 71.3408 44.2227 71.3408 41.9521Z" fill="white"/>
<path d="M46.7463 2.53552C46.9023 2.61531 47.0583 2.69509 47.219 2.77729C49.1307 3.81066 51.5526 5.72354 52.447 7.74765C51.5983 8.53511 50.7523 9.31296 49.841 10.028C49.2343 10.5042 48.6591 11.0038 48.09 11.5244C47.8667 11.7285 47.8667 11.7285 47.6389 11.9367C47.4006 12.1559 47.1631 12.3761 46.9276 12.5984C46.3477 13.1242 46.3477 13.1242 45.9631 13.1176C45.4249 12.8797 45.0828 12.4578 44.6899 12.0334C43.4159 10.7104 41.8575 9.57393 39.9614 9.46869C39.6984 9.46592 39.4354 9.46574 39.1724 9.46806C39.0416 9.4648 38.9108 9.46155 38.776 9.4582C37.6257 9.45913 36.7715 9.78631 35.9148 10.5573C35.5895 11.1537 35.5519 11.6528 35.6705 12.3083C36.1008 13.412 36.7395 13.7729 37.7879 14.2628C38.3302 14.4607 38.8791 14.6145 39.4371 14.7616C39.5867 14.8029 39.7364 14.8441 39.8905 14.8866C40.5528 15.0683 41.2167 15.2432 41.8822 15.4125C45.7438 16.4015 49.4085 17.8527 51.5818 21.3888C52.4548 22.952 52.9001 24.3563 52.7728 26.153C50.9748 26.3256 50.9748 26.3256 50.2705 25.9449C49.9385 25.6516 49.6459 25.3444 49.3523 25.0128C49.1227 24.781 48.8919 24.5503 48.6601 24.3206C48.5585 24.2156 48.4569 24.1106 48.3522 24.0025C48.0434 23.7041 47.7672 23.4417 47.3978 23.2212C46.753 23.2766 46.4565 23.6233 46.0229 24.0769C45.8876 24.216 45.7522 24.3551 45.6128 24.4984C45.4729 24.6447 45.3329 24.7909 45.1888 24.9416C44.9114 25.2313 44.633 25.52 44.3534 25.8075C44.2304 25.9361 44.1075 26.0647 43.9808 26.1972C43.6516 26.4787 43.6516 26.4787 43.1629 26.4787C43.0823 26.3074 43.0017 26.1361 42.9186 25.9596C42.0342 24.4541 40.1802 24.1353 38.6023 23.7098C38.2991 23.6328 37.9956 23.5567 37.6919 23.4814C33.9808 22.5604 30.0206 21.1664 27.7982 17.8251C26.2526 15.1646 25.6835 12.0761 26.4657 9.06571C27.3879 5.95092 29.2279 3.85555 32.0465 2.28611C36.4273 0.14786 42.4538 0.197854 46.7463 2.53552Z" fill="white"/>
<path d="M47.405 24.8651C47.7737 25.0359 47.9365 25.2048 48.1886 25.5217C49.4039 26.9716 49.4039 26.9716 51.153 27.5112C51.698 27.5195 52.2294 27.5019 52.7727 27.4559C52.6499 30.2322 51.4513 32.5137 49.5152 34.4596C49.4068 34.5737 49.2985 34.6877 49.1868 34.8051C46.3758 37.5572 41.8885 38.2981 38.1045 38.2634C34.3025 38.153 30.5329 36.8615 27.6894 34.2968C27.58 34.2006 27.4706 34.1044 27.3579 34.0054C26.6459 33.3401 26.0572 32.5949 25.4803 31.8129C25.4063 31.7147 25.3323 31.6165 25.256 31.5153C24.7612 30.823 24.7612 30.823 24.7461 30.3654C24.9957 29.9308 25.3087 29.6513 25.6839 29.3188C25.7629 29.2487 25.8418 29.1785 25.9232 29.1063C26.6367 28.4809 27.38 27.8943 28.1306 27.3144C28.9647 26.6695 29.7683 25.9932 30.5677 25.306C30.9469 25.0127 30.9469 25.0127 31.2727 25.0127C31.5022 25.2766 31.7209 25.55 31.9344 25.8271C33.3771 27.6167 35.0091 28.9017 37.2992 29.4104C37.9242 29.4593 38.5456 29.4633 39.1723 29.4613C39.3363 29.4639 39.5003 29.4665 39.6692 29.4693C40.6358 29.4699 41.3367 29.396 42.1856 28.9218C42.6007 28.4848 42.8096 28.19 43 27.6187C43.2139 27.6191 43.4279 27.6196 43.6483 27.62C44.6786 27.5058 45.1622 26.8781 45.8198 26.1325C46.0412 25.886 46.2645 25.6411 46.4898 25.3982C46.5862 25.2892 46.6827 25.1802 46.782 25.0679C47.072 24.8498 47.072 24.8498 47.405 24.8651Z" fill="white"/>
<path d="M14.0076 1.39551C17.1788 1.39551 20.3501 1.39551 23.6175 1.39551C23.6322 4.68749 23.6442 7.97944 23.6512 11.2714C23.6546 12.8002 23.6591 14.3289 23.6666 15.8577C23.6731 17.1911 23.6773 18.5245 23.6788 19.8579C23.6796 20.5631 23.6816 21.2682 23.6863 21.9734C23.6908 22.639 23.6921 23.3046 23.6911 23.9703C23.6913 24.2127 23.6926 24.4552 23.6951 24.6976C23.7164 26.8446 23.3231 28.8035 22.4264 30.7646C22.3774 30.8731 22.3285 30.9816 22.278 31.0934C21.1006 33.6241 19.2052 35.4039 16.7765 36.7402C16.643 36.8188 16.5095 36.8973 16.3719 36.9782C13.9109 38.3408 10.8027 38.6163 8.07269 38.0331C5.12956 37.1346 2.83848 35.3063 1.3323 32.6301C0.701896 31.3313 0 29.7316 0 28.2705C1.43092 27.8465 2.86857 27.4652 4.31776 27.1088C4.96743 26.9487 5.61557 26.7858 6.26066 26.608C6.37132 26.5776 6.48199 26.5471 6.596 26.5158C6.89145 26.4337 7.18655 26.3504 7.48162 26.267C7.94093 26.1623 8.32697 26.1295 8.79546 26.1531C8.85656 26.3219 8.91766 26.4907 8.98061 26.6647C9.06468 26.8878 9.14888 27.1109 9.2332 27.334C9.27299 27.4451 9.31278 27.5561 9.35377 27.6706C9.63216 28.3965 9.8974 28.8327 10.5871 29.2478C11.3236 29.422 11.9199 29.3132 12.5926 28.9831C13.2763 28.3789 13.7903 27.7068 13.8782 26.7759C13.8841 26.642 13.8901 26.508 13.8962 26.3701C13.9031 26.2247 13.9099 26.0793 13.9169 25.9295C13.9233 25.7782 13.9297 25.6269 13.9363 25.4711C13.9469 25.2413 13.9469 25.2413 13.9576 25.0069C13.9749 24.6289 13.9915 24.2509 14.0076 23.8728C14.1151 23.8728 14.2226 23.8728 14.3334 23.8728C14.3334 23.9803 14.3334 24.0878 14.3334 24.1986C14.6021 24.2523 14.8709 24.3061 15.1477 24.3614C15.3713 24.1095 15.5912 23.8544 15.8094 23.5979C15.9323 23.4562 16.0551 23.3145 16.1816 23.1685C16.4876 22.7596 16.4876 22.7596 16.447 22.321C16.2581 21.8427 16.0177 21.5182 15.6873 21.1242C15.5792 20.9936 15.471 20.863 15.3596 20.7285C15.0186 20.3124 15.0186 20.3124 14.7384 20.059C14.0442 19.3689 13.8946 18.8492 13.886 17.8808C13.8895 17.7189 13.893 17.557 13.8966 17.3901C13.8964 17.1301 13.8964 17.1301 13.8962 16.8649C13.8969 16.2946 13.9045 15.7246 13.9122 15.1543C13.914 14.7579 13.9154 14.3615 13.9163 13.9651C13.9201 12.9237 13.9297 11.8824 13.9405 10.841C13.9523 9.59054 13.9567 8.33999 13.9624 7.08946C13.9719 5.19138 13.9906 3.2936 14.0076 1.39551Z" fill="white"/>
<path d="M12.0226 12.5123C12.1989 12.5728 12.1989 12.5728 12.3789 12.6345C12.5207 13.0301 12.5617 13.2278 12.4231 13.6311C12.3598 13.7521 12.2965 13.8732 12.2313 13.9979C12.1302 14.1987 12.1302 14.1987 12.027 14.4035C11.8818 14.6828 11.7363 14.9619 11.5906 15.2408C11.4895 15.4419 11.4895 15.4419 11.3863 15.6471C11.323 15.7683 11.2597 15.8896 11.1945 16.0145C11.0457 16.4737 11.0983 16.7374 11.2387 17.1951C11.5232 17.6174 11.5232 17.6174 11.8902 18.0298C12.089 18.2644 12.089 18.2644 12.2917 18.5038C12.428 18.6632 12.5642 18.8225 12.7046 18.9867C12.9531 19.2881 13.2009 19.5901 13.4478 19.8927C13.567 20.0385 13.6863 20.1842 13.8091 20.3343C14.3685 21.0217 14.9216 21.7139 15.4736 22.4072C15.3661 22.6222 15.2586 22.8372 15.1478 23.0587C14.4465 23.0587 14.0306 22.6664 13.4783 22.2749C13.3642 22.1953 13.25 22.1158 13.1324 22.0338C12.2004 21.3809 11.2825 20.7084 10.3752 20.0217C9.88339 19.6111 9.88339 19.6111 9.28416 19.4754C8.76108 20.0694 8.46644 20.5821 8.47994 21.379C8.61276 21.8483 8.77555 22.2819 8.9584 22.7329C8.9584 22.9479 8.9584 23.1629 8.9584 23.3845C8.7434 23.3845 8.5284 23.3845 8.30689 23.3845C8.09692 23.0752 8.09692 23.0752 7.87933 22.6719C7.46059 22.0804 7.1386 21.8721 6.44078 21.7487C5.70702 21.6578 4.97362 21.617 4.23491 21.5928C4.23491 21.4853 4.23491 21.3778 4.23491 21.267C4.76837 20.9114 5.04703 20.8928 5.67028 20.8089C6.37318 20.6505 6.6095 20.5524 7.02358 19.95C7.26433 19.4177 7.47473 18.8906 7.65537 18.3352C7.4706 18.3251 7.28584 18.3151 7.09547 18.3047C6.20603 18.2071 5.37234 17.9472 4.52035 17.687C3.29593 17.3142 2.05846 17.0061 0.814453 16.7064C0.814453 16.0549 0.814453 16.0549 1.14021 15.7292C1.53753 15.7002 1.91396 15.6912 2.3109 15.6986C2.42755 15.6997 2.5442 15.7007 2.66438 15.7018C3.43117 15.7126 4.19278 15.754 4.95769 15.8106C5.25594 15.8276 5.25594 15.8276 5.56021 15.8449C6.01576 15.879 6.44568 15.9302 6.89506 16.0002C7.94448 16.1306 7.94448 16.1306 8.9584 15.892C9.59457 15.3034 9.98083 14.5536 10.376 13.7924C10.7477 13.0787 11.1443 12.4342 12.0226 12.5123Z" fill="white"/>
<path d="M54.7273 1.39551C57.8448 1.39551 60.9623 1.39551 64.1743 1.39551C64.1743 4.45926 64.1743 7.52302 64.1743 10.6796C63.5293 10.6796 62.8843 10.6796 62.2197 10.6796C62.2197 10.2496 62.2197 9.81961 62.2197 9.37658C61.8435 9.37658 61.4672 9.37658 61.0796 9.37658C61.0796 9.80658 61.0796 10.2366 61.0796 10.6796C60.1121 10.6796 59.1446 10.6796 58.1478 10.6796C58.1478 11.4859 58.1478 12.2921 58.1478 13.1228C57.3953 13.1228 56.6428 13.1228 55.8674 13.1228C55.8674 13.929 55.8674 14.7353 55.8674 15.566C55.4912 15.566 55.1149 15.566 54.7273 15.566C54.7273 10.8897 54.7273 6.21347 54.7273 1.39551Z" fill="white"/>
<path d="M54.7273 27.6191C57.8448 27.6191 60.9623 27.6191 64.1743 27.6191C64.1743 30.8441 64.1743 34.0691 64.1743 37.3919C61.0568 37.3919 57.9393 37.3919 54.7273 37.3919C54.7273 34.1669 54.7273 30.9419 54.7273 27.6191Z" fill="#78A003"/>
<path d="M54.7273 19.3115C60.7473 19.3115 66.7673 19.3115 72.9697 19.3115C72.3396 20.2567 71.7094 21.1771 71.0254 22.0805C70.941 22.1935 70.8567 22.3066 70.7698 22.4231C70.2335 23.1391 69.6768 23.8257 69.0626 24.4772C68.7908 25.0068 68.7908 25.0068 69.0606 26.3153C64.3306 26.3153 59.6006 26.3153 54.7273 26.3153C54.7273 24.0041 54.7273 21.6928 54.7273 19.3115Z" fill="white"/>
<path d="M55.7046 16.7051C59.8433 16.7051 63.9821 16.7051 68.2463 16.7051C68.0834 17.5195 68.0834 17.5195 67.9205 18.0081C63.9968 18.0081 60.073 18.0081 56.0303 18.0081C55.9228 17.5781 55.8153 17.1481 55.7046 16.7051Z" fill="white"/>
<path d="M57.0076 14.2627C60.3938 14.2627 63.7801 14.2627 67.2689 14.2627C67.2689 14.6927 67.2689 15.1227 67.2689 15.5657C63.8827 15.5657 60.4964 15.5657 57.0076 15.5657C57.0076 15.1357 57.0076 14.7057 57.0076 14.2627Z" fill="white"/>
<path d="M59.2878 11.8193C60.9003 11.8193 62.5128 11.8193 64.1742 11.8193C64.1742 12.2493 64.1742 12.6793 64.1742 13.1224C62.5617 13.1224 60.9492 13.1224 59.2878 13.1224C59.2878 12.6924 59.2878 12.2624 59.2878 11.8193Z" fill="white"/>
<path d="M77.0811 1.44699C77.3243 1.44912 77.5676 1.45074 77.8109 1.45188C78.4489 1.45622 79.0865 1.4674 79.7243 1.48004C80.3761 1.49174 81.028 1.49692 81.6799 1.50266C82.9572 1.51486 84.2342 1.5343 85.5113 1.55833C85.127 2.21206 84.7006 2.80842 84.2287 3.4009C84.151 3.49915 84.0733 3.5974 83.9933 3.69862C83.3005 4.57219 82.5954 5.43567 81.8902 6.2992C81.3487 6.96412 80.8192 7.63595 80.2992 8.31781C79.605 9.22804 78.8876 10.117 78.1633 11.0034C77.5182 11.7939 76.885 12.5926 76.2576 13.3971C75.5628 14.2852 74.8504 15.1587 74.1343 16.0297C74.0485 16.1345 73.9628 16.2393 73.8744 16.3472C73.7979 16.4402 73.7215 16.5332 73.6427 16.6289C73.4439 16.872 73.4439 16.872 73.2954 17.1947C74.4779 17.1947 75.6604 17.1947 76.8787 17.1947C76.8787 18.861 76.8787 20.5272 76.8787 22.244C75.4275 22.244 73.9762 22.244 72.481 22.244C72.7887 21.4749 73.0567 21.0936 73.5906 20.4828C74.2487 19.7292 74.7054 19.0433 75.25 18.172C72.2668 18.0914 72.2668 18.0914 69.2234 18.0091C69.3396 17.4281 69.4682 16.8924 69.6408 16.3294C69.6847 16.1856 69.7286 16.0418 69.7738 15.8936C69.8239 15.7314 69.8239 15.7314 69.875 15.5659C69.3912 15.5659 68.9075 15.5659 68.409 15.5659C68.409 14.7597 68.409 13.9534 68.409 13.1227C67.549 13.1227 66.689 13.1227 65.803 13.1227C66.0533 12.4968 66.2013 12.1664 66.5964 11.6676C66.689 11.5497 66.7816 11.4318 66.8771 11.3102C66.9761 11.1861 67.0752 11.062 67.1773 10.9341C67.2796 10.8042 67.3819 10.6744 67.4873 10.5407C67.6957 10.2765 67.9044 10.0127 68.1135 9.74912C68.4501 9.32476 68.7845 8.89869 69.1185 8.47234C69.5531 7.91794 69.9891 7.36469 70.4251 6.81142C70.6524 6.52298 70.8796 6.23446 71.1067 5.94588C71.1805 5.85218 71.2543 5.75847 71.3303 5.66192C71.7005 5.19071 72.0685 4.71795 72.4327 4.24202C72.5041 4.1486 72.5756 4.05518 72.6493 3.95893C72.844 3.70384 73.0382 3.44836 73.2324 3.19285C73.3607 3.02971 73.489 2.86657 73.6212 2.69849C73.6754 2.60154 73.7297 2.5046 73.7856 2.40471C74.5598 1.20222 75.8055 1.41422 77.0811 1.44699Z" fill="white"/>
<path d="M67.106 27.6194C68.4709 27.5624 69.8353 27.5192 71.2011 27.4928C71.8356 27.4801 72.4693 27.463 73.1033 27.4351C77.541 27.2448 77.541 27.2448 78.6462 28.1419C79.1197 28.6334 79.4781 29.1635 79.8028 29.7621C80.0582 30.2119 80.3893 30.5887 80.7267 30.9788C80.8414 31.1203 80.956 31.2618 81.0741 31.4076C81.4886 31.9145 81.911 32.4141 82.3351 32.913C83.0198 33.7183 83.6918 34.5328 84.3578 35.3536C84.771 35.8529 85.2012 36.3349 85.6392 36.8125C85.837 37.0664 85.837 37.0664 85.837 37.3921C84.424 37.4414 83.0113 37.4789 81.5976 37.5018C80.9409 37.5128 80.2848 37.5277 79.6285 37.5519C78.9937 37.5751 78.3595 37.5876 77.7244 37.593C77.4835 37.5969 77.2426 37.6045 77.0019 37.616C75.172 37.7 75.172 37.7 74.4837 37.1841C73.8901 36.6102 73.4305 35.9567 72.9696 35.2747C72.8075 35.0684 72.6439 34.8633 72.4771 34.6607C72.3507 34.4972 72.2244 34.3336 72.0941 34.1651C71.4434 33.3279 70.7801 32.5021 70.109 31.6812C69.442 30.8633 68.7807 30.0417 68.1341 29.2075C68.0058 29.042 67.8776 28.8766 67.7454 28.7061C67.4866 28.347 67.296 28.0155 67.106 27.6194Z" fill="#78A003"/>
<path d="M78.0188 18.3345C81.023 18.0666 81.023 18.0666 81.7666 18.5452C82.3068 19.0709 82.7002 19.6843 83.0645 20.3407C83.2386 20.6514 83.2386 20.6514 83.5993 20.9864C84.0461 21.6852 83.9514 22.3808 83.9232 23.1904C83.9202 23.3498 83.9173 23.5093 83.9143 23.6736C83.9066 24.0658 83.8959 24.4577 83.8824 24.8497C82.9624 24.8993 82.9624 24.8993 82.4471 24.4527C82.3295 24.3149 82.2119 24.1772 82.0908 24.0353C81.8245 23.769 81.5313 23.8129 81.1644 23.791C80.5284 23.7853 80.5284 23.7853 80.0198 24.1269C79.7863 24.436 79.7863 24.436 79.6056 24.7632C79.3218 25.0126 79.3218 25.0126 78.0188 25.0126C78.0188 22.8088 78.0188 20.6051 78.0188 18.3345Z" fill="#78A003"/>
<path d="M81.6021 24.8495C81.9991 25.0124 81.9991 25.0124 82.2536 25.3382C82.36 25.9182 82.3566 26.4353 82.0907 26.9669C81.5574 27.2336 81.0344 27.2531 80.462 27.1298C80.0118 26.7359 79.8433 26.4838 79.729 25.898C79.9426 24.8567 80.6431 24.7296 81.6021 24.8495Z" fill="#78A003"/>
<path d="M75.0565 17.0518C75.6578 17.0989 76.2592 17.1459 76.8787 17.1944C76.8787 18.8606 76.8787 20.5269 76.8787 22.2436C75.4275 22.2436 73.9762 22.2436 72.481 22.2436C72.7886 21.4745 73.0567 21.0933 73.5906 20.4825C74.2222 19.7484 74.7657 19.0109 75.2499 18.1716C75.0383 18.175 74.8267 18.1784 74.6086 18.1818C73.8339 18.1831 73.0863 18.1063 72.3181 18.0088C73.0219 16.8072 73.7588 16.9318 75.0565 17.0518Z" fill="#78A003"/>
<path d="M74.4354 24.8497C74.751 25.0431 74.751 25.0431 74.9241 25.3383C75.039 25.999 74.9764 26.2411 74.5881 26.794C74.1097 27.13 74.1097 27.13 73.5192 27.1401C72.9695 26.9671 72.9695 26.9671 72.6438 26.7024C72.4044 26.1338 72.4835 25.7632 72.6438 25.1754C73.165 24.5338 73.6823 24.658 74.4354 24.8497Z" fill="#78A003"/>
<path d="M74.2727 23.5469C75.1327 23.5469 75.9927 23.5469 76.8788 23.5469C76.8788 23.9769 76.8788 24.4069 76.8788 24.8499C76.382 24.8968 75.9078 24.9224 75.4129 24.8499C75.1176 24.4732 75.1176 24.4732 74.9242 24.0355C74.7092 23.8743 74.4942 23.713 74.2727 23.5469Z" fill="#78A003"/>
<path d="M72.7634 23.5183C72.9461 23.5325 72.9461 23.5325 73.1325 23.5469C73.0082 23.6679 72.8839 23.7888 72.7558 23.9134C72.3178 24.3206 72.3178 24.3206 72.1145 24.738C71.7458 25.0935 71.5687 25.0528 71.0659 25.0536C70.8316 25.0431 70.5974 25.0305 70.3635 25.0129C70.9921 23.7504 71.3247 23.4524 72.7634 23.5183Z" fill="#78A003"/>
</svg>
