<?xml version="1.0" encoding="UTF-8"?>
<svg version="1.1" xmlns="http://www.w3.org/2000/svg" width="1024" height="1024">
<path d="M0 0 C337.92 0 675.84 0 1024 0 C1024 337.92 1024 675.84 1024 1024 C686.08 1024 348.16 1024 0 1024 C0 686.08 0 348.16 0 0 Z " fill="#FDFDFD" transform="translate(0,0)"/>
<path d="M0 0 C19.47 0 38.94 0 59 0 C59.09051299 20.2112019 59.16410532 40.42223809 59.20724869 60.63359165 C59.22781892 70.01939241 59.2558328 79.40505771 59.30175781 88.79077148 C59.34179605 96.97734818 59.367473 105.16382672 59.37635398 113.35049862 C59.38154016 117.6798859 59.39361209 122.0089925 59.42292023 126.33828926 C59.45035879 130.42508193 59.45838854 134.51148211 59.45243073 138.59835815 C59.4535184 140.08691997 59.46130135 141.57549689 59.4768219 143.0639782 C59.60735812 156.24537958 57.19303691 168.27197509 51.6875 180.3125 C51.38682617 180.97854248 51.08615234 181.64458496 50.77636719 182.33081055 C43.54746262 197.86843258 31.91091561 208.79524995 17 217 C16.18015625 217.48210937 15.3603125 217.96421875 14.515625 218.4609375 C-0.5936418 226.8268067 -19.67676991 228.51789628 -36.4375 224.9375 C-54.50695232 219.42129059 -68.57306163 208.1963626 -77.8203125 191.765625 C-81.6906879 183.79148473 -86 173.97008908 -86 165 C-77.21479714 162.39643822 -68.38834996 160.05548765 -59.4909668 157.86767578 C-55.50233715 156.8845333 -51.52306744 155.88427339 -47.5625 154.79296875 C-46.8830835 154.60605469 -46.20366699 154.41914062 -45.50366211 154.2265625 C-43.68973904 153.7228344 -41.87798373 153.21131831 -40.06640625 152.69921875 C-37.24642122 152.05619032 -34.87630529 151.85484067 -32 152 C-31.62488281 153.03640625 -31.24976563 154.0728125 -30.86328125 155.140625 C-30.3471507 156.510717 -29.83017897 157.88049231 -29.3125 159.25 C-29.06822266 159.93191406 -28.82394531 160.61382813 -28.57226562 161.31640625 C-26.86306944 165.77329757 -25.23465936 168.4514816 -21 171 C-16.47824589 172.06949315 -12.81774735 171.40115908 -8.6875 169.375 C-4.48980594 165.6654099 -1.33381779 161.53862738 -0.79467773 155.82348633 C-0.75802002 155.00130615 -0.7213623 154.17912598 -0.68359375 153.33203125 C-0.64169922 152.43935547 -0.59980469 151.54667969 -0.55664062 150.62695312 C-0.51732422 149.69818359 -0.47800781 148.76941406 -0.4375 147.8125 C-0.37272461 146.40194336 -0.37272461 146.40194336 -0.30664062 144.96289062 C-0.20061335 142.64207146 -0.09854971 140.32114675 0 138 C0.66 138 1.32 138 2 138 C2 138.66 2 139.32 2 140 C3.65 140.33 5.3 140.66 7 141 C8.37236619 139.45346042 9.72238961 137.88707224 11.0625 136.3125 C11.81660156 135.44238281 12.57070313 134.57226562 13.34765625 133.67578125 C15.22618674 131.16570562 15.22618674 131.16570562 14.9765625 128.47265625 C13.8168321 125.53621888 12.34110447 123.54386933 10.3125 121.125 C9.64863281 120.32320313 8.98476563 119.52140625 8.30078125 118.6953125 C6.20727944 116.14076299 6.20727944 116.14076299 4.48676109 114.58524227 C0.22469961 110.34820091 -0.69360492 107.15756669 -0.746521 101.21177673 C-0.72494934 100.21771317 -0.70337769 99.2236496 -0.68115234 98.19946289 C-0.68246658 96.60322083 -0.68246658 96.60322083 -0.68380737 94.97473145 C-0.67964242 91.47328118 -0.63303821 87.97376996 -0.5859375 84.47265625 C-0.57474158 82.03886461 -0.56620327 79.60505941 -0.56021118 77.17124939 C-0.53734461 70.7774802 -0.4784381 64.38453383 -0.4119873 57.99108887 C-0.3397046 50.31361646 -0.3122486 42.63586834 -0.27726746 34.95815277 C-0.21915964 23.3048636 -0.10416859 11.65337842 0 0 Z " fill="#093254" transform="translate(333,368)"/>
<path d="M0 0 C0.95777344 0.48984375 1.91554688 0.9796875 2.90234375 1.484375 C14.63940923 7.82873472 29.50830709 19.57292172 35 32 C29.78891656 36.83461733 24.59510009 41.61027517 19 46 C15.27533336 48.92398193 11.74398556 51.99097537 8.25 55.1875 C6.87908203 56.44046875 6.87908203 56.44046875 5.48046875 57.71875 C4.0170656 59.06461998 2.55897332 60.41637301 1.11328125 61.78125 C-2.44682518 65.0095581 -2.44682518 65.0095581 -4.80859375 64.96875 C-8.11244264 63.508225 -10.21327692 60.91820274 -12.625 58.3125 C-20.44684928 50.18971814 -30.01495903 43.21247624 -41.65625 42.56640625 C-43.27074427 42.5493978 -44.88547906 42.5482466 -46.5 42.5625 C-47.30308594 42.54251953 -48.10617187 42.52253906 -48.93359375 42.50195312 C-55.99592964 42.50767625 -61.24043946 44.51639551 -66.5 49.25 C-68.49716881 52.91147615 -68.72814812 55.97602353 -68 60 C-65.35824361 66.77667942 -61.43669321 68.9920089 -55 72 C-51.67064582 73.21509035 -48.30058098 74.15927374 -44.875 75.0625 C-43.95630127 75.31580078 -43.03760254 75.56910156 -42.09106445 75.83007812 C-38.02503671 76.94547741 -33.94932375 78.01908182 -29.86328125 79.05859375 C-6.15496966 85.13054178 16.34497904 94.04013538 29.6875 115.75 C35.04754354 125.34737526 37.78170895 133.96921809 37 145 C25.96136992 146.06011234 25.96136992 146.06011234 21.63671875 143.72265625 C19.59885065 141.92165458 17.80255325 140.03600494 16 138 C14.58984066 136.57685576 13.17317997 135.16012328 11.75 133.75 C11.12609375 133.10546875 10.5021875 132.4609375 9.859375 131.796875 C7.96363041 129.96485292 6.26809251 128.35382266 4 127 C0.04093963 127.34042376 -1.77884765 129.46876156 -4.44140625 132.25390625 C-5.27220703 133.10791016 -6.10300781 133.96191406 -6.95898438 134.84179688 C-7.81814453 135.73962891 -8.67730469 136.63746094 -9.5625 137.5625 C-11.26510154 139.34139437 -12.97441978 141.11389218 -14.69140625 142.87890625 C-15.44623291 143.6685376 -16.20105957 144.45816895 -16.97875977 145.27172852 C-19 147 -19 147 -22 147 C-22.495 145.948125 -22.99 144.89625 -23.5 143.8125 C-28.93024525 134.56992504 -40.31290364 132.61257471 -50 130 C-51.86198293 129.52740702 -53.72534157 129.06021025 -55.58984375 128.59765625 C-78.37406341 122.94331678 -102.68755445 114.38464354 -116.33203125 93.87109375 C-125.82172735 77.53637095 -129.3153961 58.57452838 -124.51293945 40.09228516 C-118.85134287 20.96895892 -107.55476548 8.10435805 -90.25 -1.53125 C-63.35389529 -14.65911063 -26.35356266 -14.35217497 0 0 Z " fill="#083153" transform="translate(534,375)"/>
<path d="M0 0 C2.26313616 1.04848091 3.26298689 2.08547582 4.81054688 4.03076172 C12.27230724 12.93288133 12.27230724 12.93288133 23.01098633 16.24560547 C26.35674775 16.29632551 29.61948974 16.1884387 32.95507812 15.90576172 C32.20084254 32.95148605 24.84228901 46.95871588 12.95507812 58.90576172 C12.28992188 59.60572266 11.62476563 60.30568359 10.93945312 61.02685547 C-6.31900134 77.92301413 -33.86877867 82.47215156 -57.10107422 82.2590332 C-80.4436931 81.58134427 -103.58723097 73.6519143 -121.04492188 57.90576172 C-121.71652344 57.31537109 -122.388125 56.72498047 -123.08007812 56.11669922 C-127.45132782 52.03223131 -131.06576618 47.45681036 -134.60742188 42.65576172 C-135.06181641 42.05296387 -135.51621094 41.45016602 -135.984375 40.82910156 C-139.02278735 36.57840535 -139.02278735 36.57840535 -139.11523438 33.76904297 C-137.58250854 31.10075749 -135.66113777 29.38465668 -133.35742188 27.34326172 C-132.87265381 26.91271484 -132.38788574 26.48216797 -131.88842773 26.03857422 C-127.50772368 22.19932104 -122.94431398 18.5978523 -118.33618164 15.03710938 C-113.21468724 11.07795496 -108.28145697 6.92593828 -103.37304688 2.70654297 C-101.04492188 0.90576172 -101.04492188 0.90576172 -99.04492188 0.90576172 C-97.63588409 2.52630412 -96.29297415 4.20458628 -94.98242188 5.90576172 C-86.12483985 16.89311266 -76.10524137 24.78283072 -62.04492188 27.90576172 C-58.20761043 28.20576577 -54.39249433 28.23057789 -50.54492188 28.21826172 C-49.53816406 28.234375 -48.53140625 28.25048828 -47.49414062 28.26708984 C-41.55972014 28.27097872 -37.25676913 27.81744705 -32.04492188 24.90576172 C-29.49636869 22.22307415 -28.21395344 20.41285643 -27.04492188 16.90576172 C-25.73136719 16.90833984 -24.4178125 16.91091797 -23.06445312 16.91357422 C-16.73900539 16.21253576 -13.77027411 12.35880785 -9.73242188 7.78076172 C-8.37306099 6.26753492 -7.0024532 4.76431224 -5.61914062 3.27294922 C-5.02705811 2.60376465 -4.43497559 1.93458008 -3.82495117 1.24511719 C-2.04492188 -0.09423828 -2.04492188 -0.09423828 0 0 Z " fill="#083153" transform="translate(538.044921875,512.09423828125)"/>
<path d="M0 0 C1.49355747 0.01306825 2.98714511 0.02302663 4.48074341 0.03001404 C8.39750122 0.05664486 12.31241977 0.12531851 16.22845459 0.20294189 C20.23017497 0.27476218 24.23219484 0.30656524 28.234375 0.34179688 C36.07636161 0.41669935 43.91685779 0.5360471 51.7578125 0.68359375 C49.39838427 4.69716332 46.78027261 8.35854697 43.8828125 11.99609375 C43.40593994 12.59929443 42.92906738 13.20249512 42.43774414 13.82397461 C38.18436665 19.18722745 33.85558812 24.48863722 29.52587891 29.7902832 C26.20112082 33.87254991 22.9505926 37.9972743 19.7578125 42.18359375 C15.49573351 47.77195989 11.09141951 53.22987888 6.64453125 58.671875 C2.68403809 63.52487366 -1.20358267 68.42883911 -5.0559082 73.36791992 C-9.3213224 78.82081544 -13.69526384 84.18371151 -18.09179688 89.53125 C-18.61837891 90.17449219 -19.14496094 90.81773437 -19.6875 91.48046875 C-20.15687988 92.05120117 -20.62625977 92.62193359 -21.10986328 93.20996094 C-22.33073811 94.70206937 -22.33073811 94.70206937 -23.2421875 96.68359375 C-15.9821875 96.68359375 -8.7221875 96.68359375 -1.2421875 96.68359375 C-1.2421875 106.91359375 -1.2421875 117.14359375 -1.2421875 127.68359375 C-10.1521875 127.68359375 -19.0621875 127.68359375 -28.2421875 127.68359375 C-26.35343184 122.96170461 -24.70784339 120.62106818 -21.4296875 116.87109375 C-17.38949124 112.24412164 -14.58560755 108.03306583 -11.2421875 102.68359375 C-29.5571875 102.18859375 -29.5571875 102.18859375 -48.2421875 101.68359375 C-47.52874774 98.11639497 -46.73967746 94.82758274 -45.6796875 91.37109375 C-45.41027344 90.48808594 -45.14085937 89.60507812 -44.86328125 88.6953125 C-44.55583984 87.69951172 -44.55583984 87.69951172 -44.2421875 86.68359375 C-47.2121875 86.68359375 -50.1821875 86.68359375 -53.2421875 86.68359375 C-53.2421875 81.73359375 -53.2421875 76.78359375 -53.2421875 71.68359375 C-58.5221875 71.68359375 -63.8021875 71.68359375 -69.2421875 71.68359375 C-67.70507723 67.84081808 -66.79696699 65.81237046 -64.37109375 62.75 C-63.80237549 62.02586914 -63.23365723 61.30173828 -62.64770508 60.55566406 C-62.03950928 59.79350586 -61.43131348 59.03134766 -60.8046875 58.24609375 C-60.17651123 57.44913086 -59.54833496 56.65216797 -58.90112305 55.83105469 C-57.62207706 54.20916661 -56.3405953 52.58919634 -55.05664062 50.97119141 C-52.99011283 48.36578702 -50.9372453 45.74994194 -48.88623047 43.13232422 C-46.21819806 39.72855277 -43.54112148 36.33188666 -40.86425781 32.93505859 C-39.46884055 31.16417742 -38.07406229 29.39279585 -36.6796875 27.62109375 C-36.22674316 27.04576904 -35.77379883 26.47044434 -35.30712891 25.87768555 C-33.03398672 22.98470663 -30.77478611 20.08217238 -28.5390625 17.16015625 C-28.10021729 16.586604 -27.66137207 16.01305176 -27.20922852 15.42211914 C-26.01359492 13.8560011 -24.82112996 12.28746541 -23.62890625 10.71875 C-22.84128906 9.71714844 -22.05367187 8.71554687 -21.2421875 7.68359375 C-20.90897995 7.08839935 -20.5757724 6.49320496 -20.23246765 5.87997437 C-15.47922158 -1.50274649 -7.83124854 -0.2012092 0 0 Z " fill="#083153" transform="translate(720.2421875,368.31640625)"/>
<path d="M0 0 C36.96 0 73.92 0 112 0 C108.1312192 5.8031712 104.26194662 11.45393585 100.0625 17 C99.54469971 17.69424072 99.02689941 18.38848145 98.4934082 19.10375977 C95.20090492 23.49941871 91.78310467 27.71488899 88.01171875 31.71484375 C86.3430172 34.96605712 86.3430172 34.96605712 88 43 C58.96 43 29.92 43 0 43 C0 28.81 0 14.62 0 0 Z " fill="#0A3254" transform="translate(583,478)"/>
<path d="M0 0 C8.38000771 -0.34979493 16.75690121 -0.6151361 25.14243603 -0.77718258 C29.037953 -0.85502327 32.9284303 -0.96025378 36.82104492 -1.1315918 C64.06653086 -2.29996153 64.06653086 -2.29996153 70.8515625 3.20800781 C73.75889106 6.22568836 75.95890106 9.4802648 77.95275879 13.15496826 C79.52035627 15.91676475 81.55365243 18.23007041 83.625 20.625 C84.32882812 21.49382813 85.03265625 22.36265625 85.7578125 23.2578125 C88.30253535 26.36999968 90.89611777 29.43732143 93.5 32.5 C97.70325581 37.44419097 101.82895248 42.44493873 105.91796875 47.484375 C108.45489563 50.54962999 111.09649805 53.50887882 113.78515625 56.44140625 C115 58 115 58 115 60 C106.32464669 60.30265254 97.65113701 60.53289112 88.97163677 60.67355824 C84.94003708 60.74111424 80.9120742 60.83252927 76.88256836 60.98071289 C72.9853652 61.12311627 69.09163177 61.19991375 65.19202614 61.23340416 C63.71291269 61.25722969 62.23396709 61.30376611 60.75635338 61.37449074 C49.52173048 61.89030142 49.52173048 61.89030142 45.29606628 58.72272301 C41.65130435 55.19931366 38.82997965 51.18686674 36 47 C35.00496497 45.73334703 34.00019093 44.47412839 32.9765625 43.23046875 C32.20054687 42.22628906 31.42453125 41.22210937 30.625 40.1875 C26.6299095 35.04740824 22.55779671 29.97770494 18.4375 24.9375 C14.34227917 19.91604425 10.28186725 14.87174049 6.3125 9.75 C5.52488281 8.73421875 4.73726562 7.7184375 3.92578125 6.671875 C2.33691111 4.46743854 1.16701609 2.43185034 0 0 Z " fill="#779F04" transform="translate(659,529)"/>
<path d="M0 0 C19.14 0 38.28 0 58 0 C58 18.81 58 37.62 58 57 C54.04 57 50.08 57 46 57 C46 54.36 46 51.72 46 49 C43.69 49 41.38 49 39 49 C39 51.64 39 54.28 39 57 C33.06 57 27.12 57 21 57 C21 61.95 21 66.9 21 72 C16.38 72 11.76 72 7 72 C7 76.95 7 81.9 7 87 C4.69 87 2.38 87 0 87 C0 58.29 0 29.58 0 0 Z " fill="#0C3456" transform="translate(583,368)"/>
<path d="M0 0 C19.14 0 38.28 0 58 0 C58 19.8 58 39.6 58 60 C38.86 60 19.72 60 0 60 C0 40.2 0 20.4 0 0 Z " fill="#78A003" transform="translate(583,529)"/>
<path d="M0 0 C1.0828125 0.37125 1.0828125 0.37125 2.1875 0.75 C3.05849274 3.17923172 3.31022269 4.39305958 2.45898438 6.86889648 C2.07033203 7.61212158 1.68167969 8.35534668 1.28125 9.12109375 C0.66056641 10.35375977 0.66056641 10.35375977 0.02734375 11.61132812 C-0.86428674 13.3257022 -1.75751094 15.03924835 -2.65234375 16.75195312 C-3.27302734 17.98655273 -3.27302734 17.98655273 -3.90625 19.24609375 C-4.29490234 19.99044678 -4.68355469 20.7347998 -5.08398438 21.50170898 C-5.99752289 24.32100396 -5.67429077 25.94022707 -4.8125 28.75 C-3.06557695 31.34306084 -3.06557695 31.34306084 -0.8125 33.875 C0.40759766 35.31552734 0.40759766 35.31552734 1.65234375 36.78515625 C2.48894531 37.76355469 3.32554687 38.74195313 4.1875 39.75 C5.71333995 41.60004878 7.2343072 43.45412883 8.75 45.3125 C9.4821875 46.20710938 10.214375 47.10171875 10.96875 48.0234375 C14.40279271 52.24344069 17.79889576 56.49346988 21.1875 60.75 C20.5275 62.07 19.8675 63.39 19.1875 64.75 C14.88207995 64.75 12.32870036 62.3414449 8.9375 59.9375 C8.2367334 59.44918701 7.5359668 58.96087402 6.81396484 58.45776367 C1.0919496 54.44902252 -4.54342728 50.32048864 -10.11425781 46.10424805 C-13.13348316 43.5833903 -13.13348316 43.5833903 -16.8125 42.75 C-20.02397264 46.39724769 -21.8329264 49.54484237 -21.75 54.4375 C-20.93457951 57.31865241 -19.93512509 59.98085811 -18.8125 62.75 C-18.8125 64.07 -18.8125 65.39 -18.8125 66.75 C-20.1325 66.75 -21.4525 66.75 -22.8125 66.75 C-24.1015625 64.8515625 -24.1015625 64.8515625 -25.4375 62.375 C-28.00837581 58.74385168 -29.985216 57.464951 -34.26953125 56.70703125 C-38.77446055 56.14915909 -43.27716836 55.89877807 -47.8125 55.75 C-47.8125 55.09 -47.8125 54.43 -47.8125 53.75 C-44.53732556 51.56655037 -42.82649493 51.45251252 -39 50.9375 C-34.68454835 49.96456181 -33.23363243 49.36269727 -30.69140625 45.6640625 C-29.21330637 42.39593757 -27.92154888 39.15983887 -26.8125 35.75 C-27.946875 35.688125 -29.08125 35.62625 -30.25 35.5625 C-35.7107418 34.96335905 -40.82920276 33.36791449 -46.06005859 31.77001953 C-53.57740568 29.4812691 -61.17486216 27.59002311 -68.8125 25.75 C-68.8125 21.75 -68.8125 21.75 -66.8125 19.75 C-64.37316382 19.57253904 -62.06203367 19.51686801 -59.625 19.5625 C-58.90884521 19.56894531 -58.19269043 19.57539063 -57.45483398 19.58203125 C-52.7471069 19.64828623 -48.07117449 19.90232185 -43.375 20.25 C-41.54388672 20.35441406 -41.54388672 20.35441406 -39.67578125 20.4609375 C-36.87894107 20.67020562 -34.23939724 20.98433812 -31.48046875 21.4140625 C-25.03750044 22.2146206 -25.03750044 22.2146206 -18.8125 20.75 C-14.90672131 17.13605758 -12.53528051 12.53278129 -10.109375 7.859375 C-7.82683541 3.47744746 -5.39213244 -0.47930066 0 0 Z " fill="#0C3457" transform="translate(320.8125,436.25)"/>
<path d="M0 0 C5.34804594 2.40237619 8.15835305 5.33805614 10.73046875 10.6640625 C12.73966334 16.75306271 12.48269451 23.84705828 10.4375 29.875 C6.46247135 35.35779813 2.14692812 39.35502885 -4.375 41.375 C-11.29846245 42.38137139 -16.95702424 42.07948637 -22.69140625 37.87109375 C-27.09516695 33.95777508 -31.02072989 29.63704556 -31.67578125 23.60546875 C-31.70283592 16.58027326 -31.68972161 10.80936125 -26.53515625 5.46875 C-18.33937119 -1.97918875 -10.73653235 -3.85743677 0 0 Z " fill="#0E3559" transform="translate(350.375,617.625)"/>
<path d="M0 0 C18.44443389 -1.64472659 18.44443389 -1.64472659 23.00976562 1.29345703 C26.32599448 4.52075588 28.74135897 8.28681607 30.97802734 12.31713867 C32.04687323 14.22459493 32.04687323 14.22459493 34.26171875 16.28125 C37.00472618 20.57143691 36.4235737 24.84228378 36.25 29.8125 C36.23195313 30.79154297 36.21390625 31.77058594 36.1953125 32.77929688 C36.14832887 35.18720771 36.08265694 37.59309335 36 40 C30.3515625 40.3046875 30.3515625 40.3046875 27.1875 37.5625 C26.465625 36.716875 25.74375 35.87125 25 35 C23.36522064 33.36522064 21.56527873 33.63469529 19.3125 33.5 C15.4078805 33.46536771 15.4078805 33.46536771 12.28515625 35.5625 C10.85141575 37.45990556 10.85141575 37.45990556 9.7421875 39.46875 C8 41 8 41 0 41 C0 27.47 0 13.94 0 0 Z " fill="#7AA10F" transform="translate(726,472)"/>
<path d="M0 0 C1.93359375 1.265625 1.93359375 1.265625 2.83203125 3.265625 C2.93359375 5.265625 2.93359375 5.265625 0.99609375 7.515625 C0.31546875 8.093125 -0.36515625 8.670625 -1.06640625 9.265625 C-1.85015625 8.935625 -2.63390625 8.605625 -3.44140625 8.265625 C-8.06670937 6.98967931 -12.30088062 6.59845141 -17.06640625 7.265625 C-20.0006382 9.06209354 -21.5384598 10.2097321 -23.06640625 13.265625 C-23.4916675 17.88625205 -23.62951006 21.97853057 -21.75390625 26.265625 C-20.04177228 28.48298353 -20.04177228 28.48298353 -17.06640625 30.265625 C-13.05140694 30.53436659 -9.09503218 30.35226212 -5.06640625 30.265625 C-5.06640625 25.975625 -5.06640625 21.685625 -5.06640625 17.265625 C-2.09640625 17.265625 0.87359375 17.265625 3.93359375 17.265625 C3.93359375 23.205625 3.93359375 29.145625 3.93359375 35.265625 C-3.49963341 39.63811157 -9.40312805 41.73742503 -18.06640625 40.265625 C-24.01677844 37.99929197 -28.50670154 33.46353291 -32.06640625 28.265625 C-34.12285477 22.09627943 -34.32456658 14.64152847 -32.04296875 8.51953125 C-24.42613388 -3.95777008 -12.66481628 -4.97899173 0 0 Z " fill="#10375C" transform="translate(437.06640625,618.734375)"/>
<path d="M0 0 C1.88568676 0.9411687 3.70755139 2.00834765 5.51171875 3.09765625 C4.89894263 6.05940748 4.25799353 7.47824408 2.51171875 10.09765625 C-2.23828125 9.22265625 -2.23828125 9.22265625 -4.48828125 8.09765625 C-9.14104101 7.79239405 -9.14104101 7.79239405 -13.48828125 9.09765625 C-13.48828125 10.74765625 -13.48828125 12.39765625 -13.48828125 14.09765625 C-12.39128906 14.40058594 -11.29429687 14.70351563 -10.1640625 15.015625 C-8.70938775 15.43794993 -7.25497408 15.86117488 -5.80078125 16.28515625 C-5.07955078 16.48173828 -4.35832031 16.67832031 -3.61523438 16.88085938 C1.24374049 18.32302086 4.33448374 19.94138952 7.51171875 24.09765625 C8.67145689 28.70779545 8.1682816 32.8633181 5.94921875 37.03515625 C0.61451065 41.54914003 -4.147027 42.60310607 -10.98828125 42.39453125 C-16.06901476 41.79119415 -20.22840636 39.93757285 -24.48828125 37.09765625 C-23.87550513 34.13590502 -23.23455603 32.71706842 -21.48828125 30.09765625 C-19.33324846 30.55944899 -17.63321053 31.00966347 -15.73828125 32.16015625 C-12.21668775 33.62748687 -9.29608943 33.33942185 -5.48828125 33.09765625 C-4.49828125 32.43765625 -3.50828125 31.77765625 -2.48828125 31.09765625 C-2.81828125 29.77765625 -3.14828125 28.45765625 -3.48828125 27.09765625 C-4.44089844 26.86691406 -5.39351562 26.63617187 -6.375 26.3984375 C-7.62925781 26.07230469 -8.88351562 25.74617187 -10.17578125 25.41015625 C-11.41714844 25.09691406 -12.65851562 24.78367187 -13.9375 24.4609375 C-17.8536717 22.95736883 -19.75893495 21.23210034 -22.48828125 18.09765625 C-22.81828125 17.76765625 -23.14828125 17.43765625 -23.48828125 17.09765625 C-24.02237726 12.36959325 -24.19494312 8.37508348 -21.86328125 4.16015625 C-15.54941392 -1.32293906 -7.9923246 -2.89831552 0 0 Z " fill="#0D375B" transform="translate(562.48828125,616.90234375)"/>
<path d="M0 0 C2.41584296 1.19086044 4.72689515 2.445484 7.015625 3.86328125 C7.015625 7.86328125 7.015625 7.86328125 5.015625 10.11328125 C4.355625 10.69078125 3.695625 11.26828125 3.015625 11.86328125 C1.015625 10.86328125 -0.984375 9.86328125 -2.984375 8.86328125 C-8.49936495 8.24162377 -12.62021108 7.79923339 -17.109375 11.30078125 C-18.0375 12.56921875 -18.0375 12.56921875 -18.984375 13.86328125 C-19.314375 14.19328125 -19.644375 14.52328125 -19.984375 14.86328125 C-20.51584116 20.05596697 -20.83759007 24.44125614 -18.109375 28.98828125 C-14.84678025 31.86704132 -12.89304773 32.04437499 -8.609375 32.11328125 C-7.17464844 32.15195312 -7.17464844 32.15195312 -5.7109375 32.19140625 C-2.57970438 31.81458163 -1.36316407 30.84996223 1.015625 28.86328125 C3.078125 28.86328125 3.078125 28.86328125 5.015625 29.86328125 C6.765625 32.42578125 6.765625 32.42578125 8.015625 34.86328125 C1.57206815 40.5575873 -3.18561401 42.42348112 -11.9140625 42.23046875 C-18.6370508 41.42644725 -23.32734299 38.19138716 -27.546875 32.98828125 C-31.30026282 26.72914011 -30.98864526 19.90095808 -29.984375 12.86328125 C-28.03818734 6.58900462 -23.43700517 2.99853015 -17.79296875 -0.0625 C-11.77213438 -2.3653226 -6.01046295 -2.28932555 0 0 Z " fill="#0E375A" transform="translate(766.984375,617.13671875)"/>
<path d="M0 0 C3.691875 0.28875 7.38375 0.5775 11.1875 0.875 C11.1875 11.105 11.1875 21.335 11.1875 31.875 C2.2775 31.875 -6.6325 31.875 -15.8125 31.875 C-13.92374434 27.15311086 -12.27815589 24.81247443 -9 21.0625 C-5.12259594 16.5558375 -1.78520282 12.02768488 1.1875 6.875 C-0.111875 6.895625 -1.41125 6.91625 -2.75 6.9375 C-7.50632325 6.94504972 -12.09638953 6.47387117 -16.8125 5.875 C-12.49181217 -1.5017841 -7.96710993 -0.73675903 0 0 Z " fill="#779E09" transform="translate(707.8125,464.125)"/>
<path d="M0 0 C25.41 0 50.82 0 77 0 C76 5 76 5 75 8 C50.91 8 26.82 8 2 8 C1.34 5.36 0.68 2.72 0 0 Z " fill="#15395C" transform="translate(589,462)"/>
<path d="M0 0 C10.89 0 21.78 0 33 0 C33 2.64 33 5.28 33 8 C29.04 8 25.08 8 21 8 C21 18.89 21 29.78 21 41 C18.03 41 15.06 41 12 41 C12 30.11 12 19.22 12 8 C8.04 8 4.08 8 0 8 C0 5.36 0 2.72 0 0 Z " fill="#093359" transform="translate(609,617)"/>
<path d="M0 0 C3.79667418 1.61560604 5.8080943 3.54329717 8 7 C8.75035325 11.52418874 8.54646353 15.71581071 6.75 19.9375 C4.23193945 22.90521422 2.29028342 24.76924887 -1.62109375 25.46875 C-9.2468119 25.55336268 -9.2468119 25.55336268 -13.0625 22.75 C-13.701875 21.8425 -14.34125 20.935 -15 20 C-15.433125 19.401875 -15.86625 18.80375 -16.3125 18.1875 C-17.38795078 14.76561115 -17.5609599 11.51444755 -17 8 C-12.77567931 0.13402354 -8.39444318 -0.87302209 0 0 Z " fill="#F8F9F9" transform="translate(345,625)"/>
<path d="M0 0 C2.97 0 5.94 0 9 0 C9 10.89 9 21.78 9 33 C15.27 33 21.54 33 28 33 C28 35.64 28 38.28 28 41 C18.76 41 9.52 41 0 41 C0 27.47 0 13.94 0 0 Z " fill="#0A3359" transform="translate(251,617)"/>
<path d="M0 0 C20.79 0 41.58 0 63 0 C63 2.64 63 5.28 63 8 C42.21 8 21.42 8 0 8 C0 5.36 0 2.72 0 0 Z " fill="#0D3456" transform="translate(597,447)"/>
<path d="M0 0 C2.97 0 5.94 0 9 0 C9 13.86 9 27.72 9 42 C6.03 42 3.06 42 0 42 C0 28.14 0 14.28 0 0 Z " fill="#113A5F" transform="translate(486,617)"/>
<path d="M0 0 C2.64 0 5.28 0 8 0 C8 13.53 8 27.06 8 41 C5.36 41 2.72 41 0 41 C0 27.47 0 13.94 0 0 Z " fill="#032E54" transform="translate(685,617)"/>
<path d="M0 0 C4.16545723 -0.52727307 6.96485853 -0.86726979 11 0 C14.59916097 2.90392928 17.22322404 6.3265568 20 10 C20.86625 10.84111328 20.86625 10.84111328 21.75 11.69921875 C23 13 23 13 23 15 C15.41 15 7.82 15 0 15 C0 10.05 0 5.1 0 0 Z " fill="#F5F8EE" transform="translate(733,479)"/>
<path d="M0 0 C9.9 0 19.8 0 30 0 C30 2.64 30 5.28 30 8 C20.1 8 10.2 8 0 8 C0 5.36 0 2.72 0 0 Z " fill="#183D5E" transform="translate(611,432)"/>
<path d="M0 0 C1.9375 1.1875 1.9375 1.1875 3 3 C3.70541917 7.0561602 3.32120577 8.54252512 0.9375 11.9375 C-2 14 -2 14 -5.625 14.0625 C-9 13 -9 13 -11 11.375 C-12.46981805 7.88418213 -11.98413921 5.60851044 -11 2 C-7.79952331 -1.93904824 -4.62362797 -1.17692348 0 0 Z " fill="#78A20F" transform="translate(704,512)"/>
<path d="M0 0 C2.4375 1 2.4375 1 4 3 C4.65289471 6.56124386 4.63208836 9.73582328 3 13 C-0.27455496 14.63727748 -3.48518265 14.75671118 -7 14 C-9.76386182 11.5816209 -10.79835577 10.03342666 -11.5 6.4375 C-10.18856814 0.04426967 -5.88813465 -0.73601683 0 0 Z " fill="#7C9F0B" transform="translate(748,512)"/>
<path d="M0 0 C5.28 0 10.56 0 16 0 C16 2.64 16 5.28 16 8 C12.95020617 8.2877164 10.03888915 8.4449802 7 8 C5.1875 5.6875 5.1875 5.6875 4 3 C2.68 2.01 1.36 1.02 0 0 Z " fill="#789F0B" transform="translate(703,504)"/>
<path d="M0 0 C1.12148438 0.08701172 1.12148438 0.08701172 2.265625 0.17578125 C1.5025 0.91828125 0.739375 1.66078125 -0.046875 2.42578125 C-2.7358524 4.92535196 -2.7358524 4.92535196 -3.984375 7.48828125 C-6.24797432 9.67103774 -7.33524644 9.42096592 -10.421875 9.42578125 C-11.8603548 9.36154292 -13.29854499 9.28414578 -14.734375 9.17578125 C-10.87540097 1.42470894 -8.83305739 -0.40465577 0 0 Z " fill="#80A213" transform="translate(693.734375,503.82421875)"/>
<path d="M0 0 C0.33 0.66 0.66 1.32 1 2 C3.34907875 2.68931344 3.34907875 2.68931344 6.0625 3.125 C6.98160156 3.29257812 7.90070312 3.46015625 8.84765625 3.6328125 C9.91306641 3.81457031 9.91306641 3.81457031 11 4 C11 4.33 11 4.66 11 5 C6.05 5 1.1 5 -4 5 C-2.68 3.35 -1.36 1.7 0 0 Z " fill="#5F8A07" transform="translate(695,465)"/>
<path d="M0 0 C0.66 0 1.32 0 2 0 C0.55746343 3.36591866 -1.33264727 5.51047079 -4 8 C-4.66 7.67 -5.32 7.34 -6 7 C-5.04882866 5.8274869 -4.08882991 4.66212985 -3.125 3.5 C-2.59132813 2.8503125 -2.05765625 2.200625 -1.5078125 1.53125 C-0.76144531 0.77328125 -0.76144531 0.77328125 0 0 Z " fill="#1E3D5E" transform="translate(428,384)"/>
</svg>
